<svg fill="#ffffff" xmlns="http://www.w3.org/2000/svg" viewBox="0 0 1514.99 1696.38">
  <defs/>
  <path d="M1485.54 851.1c-2.68-4.45-4.64-9.62-11.44-9.81 1.64-6.88-1.98-11.73-5.16-16.79-8.89-14.12-17.93-28.16-26.37-42.54-2.62-4.46-5.01-7.28-10.56-6.55-1.36.18-2.98-1.66-4.48-2.57.2-.4.41-.8.61-1.2 1.6-.16 3.2-.32 5.68-.57-1.09-3.06-1.59-5.88-2.98-8.16-8.27-13.55-16.78-26.96-25.15-40.45-5.15-8.31-12.68-11.91-22.3-11.91-162.48.04-324.96.04-487.44.03-1.3 0-2.61-.23-4.68-.43 15.31-11.89 29.69-23.11 42-36.9 19.98-22.38 34.93-47.59 45.1-75.69 9.8-27.07 14.61-55.06 12.8-83.82-.92-14.61-3.54-29.12-5.62-43.64-1.66-11.57-7.25-21.86-10.98-32.75-3.39-9.89-7.34-19.35-12.37-28.45-3.19-5.77-6.43-11.34-13.91-11.54.06-8.26-1.57-13.15-5.99-17.79-2.05-2.15-4.79-3.77-6.41-6.17-9.31-13.79-22.8-23.25-35.16-33.75-15.02-12.76-32.58-21.61-50.72-29.13-26.52-11-54.27-16.33-82.92-16.85-16.42-.3-32.65 1.59-48.78 4.79-27.77 5.52-53.5 16.03-77.17 31.36-20.79 13.47-39.36 29.69-54.49 49.35-8.52 11.08-16.4 22.8-23.24 34.98-10.51 18.7-18.25 38.57-20.91 60.16-1.35 10.94-4.27 21.77-4.8 32.73-1.22 24.91.65 49.66 7.21 73.89 6.28 23.19 15.63 44.97 29.36 64.78 10.18 14.68 21.04 28.76 34.62 40.53 7 6.06 14 12.13 21.01 18.19 2.03 1.75 4.08 3.47 7.22 6.14h-10.35c-96.32 0-192.65-.01-288.97.04-4.12 0-8.24.81-12.36.78-11.84-.1-23.68-.59-35.53-.62-8.05-.01-16.1.78-24.15.72-13.63-.1-27.29-1.26-40.87-.59-5.52.27-10.87-.16-16.3-.16-25.63 0-51.26.43-76.89 1-2.19.05-5.55 1.77-6.22 3.53-1.14 3.02-2.75 4.84-5.38 6.37-1.37.8-2.93 2.22-3.28 3.63-1.27 5.12-4.64 8.59-7.61 12.74-10.35 14.43-19.37 29.81-28.34 43.96 1.27 2.98 2.13 4.97 3.29 7.69-6.57-1.47-7.13-1.42-9.99 2.9-4.36 6.59-8.63 13.25-12.66 20.04-1.62 2.73-1.7 7.28-3.91 8.59-5.31 3.16-6.98 8.58-9.96 13.08-8.99 13.58-17.53 27.46-26.24 41.23v12c7.67 12.27 15.32 24.54 23.02 36.79 14.69 23.37 29.39 46.72 44.11 70.07 9.4 14.9 18.83 29.77 28.26 44.64 5.99 9.44 13.92 14.56 25.77 14.51 70.49-.29 140.99-.19 211.48-.08 8.85.01 17.58.14 25.72-4.06 1.01-.52 2.83-.9 3.54-.36 5.54 4.2 12.06 4.31 18.41 4.3 86.96-.21 173.91-.73 260.87-.83 128.99-.15 257.98-.02 386.97-.12 3.99 0 7.97-1.28 11.97-1.87.88-.13 1.84 0 2.72.2 2.3.53 4.58 1.68 6.88 1.68 87.16.09 174.32.07 261.48.08 16 0 32 .15 48-.09 4.79-.07 9.87-.06 13.74-3.93 3.42-3.42 4.3-9.86 11.16-9.31.65.05 1.55-1.54 2.15-2.49 5.57-8.79 11.16-17.57 16.65-26.41 13.11-21.12 26.16-42.28 39.26-63.41 12.26-19.77 24.55-39.53 36.83-59.29v-12c-4.94-8.15-9.94-16.26-14.85-24.42zm-142.16-64.09c.47.09.94.17 1.42.26.76 1.73 1.79 3.41 2.16 5.22.18.9-.87 2.05-1.37 3.09-1.02-.5-2.9-.97-2.92-1.49-.06-2.35.42-4.72.71-7.08zm-292.24-54.56c30.79.19 61.58.56 92.37.94 22.28.27 44.56.68 66.84 1.04 19.62.32 39.25.64 58.87.99 16.61.3 33.23.54 49.84 1.02 7.42.22 14.82.96 22.29 1.84-1.08.11-2.17.3-3.25.31-8.33.03-16.66-.08-24.99.03-19.29.27-38.58.64-57.87.98-17.62.31-35.24.69-52.85.97-23.29.37-46.58.71-69.87 1.02-26.12.35-52.24.73-78.36.97-43.26.39-86.51.66-129.77 1.02-36.61.31-73.22.67-109.84 1-.99.01-1.97-.08-2.96-.13-.05-.27-.1-.53-.16-.8 2.25-.56 4.54-1.03 6.76-1.7 8.54-2.59 17.01-5.45 25.62-7.8 4.89-1.33 10-2.62 15-2.61 64.13.15 128.23.5 192.33.91zm231.89 186.33c-7.6-7.55-17.4-8.99-27.1-11.21-15.25-3.48-30.6-6.71-45.6-11.09-19.68-5.74-33.68-23.95-33-45.09.24-7.57-.86-15.17 2.63-22.53 7.49-15.86 19.36-26.79 35.39-33.56 16.5-6.97 33.9-8.24 51.28-6.62 15.08 1.41 30.16 4.5 42.86 13.83 11.1 8.16 12.58 21.13 6.31 32.04-3.18 5.53-14.32 3.66-17.95-2.87-4.91-8.83-10.55-16.92-20.36-20.91-8.51-3.45-17.29-5-26.49-3.48-3.56.59-7.38.24-10.74 1.37-12.25 4.11-24.06 16.74-18.82 31.83 2.6 7.48 8.53 11.84 15.84 13.84 13.22 3.62 26.58 6.73 39.89 10 3.35.82 6.71 1.81 10.11 2.09 2.98.25 6.03-.38 8.82-.6 3.11 2.3 6.1 5.12 9.59 7.02 13.86 7.51 21.34 19.2 23.86 34.54 2.35 14.31.52 27.83-7.92 39.81-12.48 17.7-29.96 26.44-51.49 27.35-7.12.3-14.27 1.21-21.36.93-18.53-.73-36.51-4.37-53-13.2-11.12-5.96-19.16-14.88-22.79-27.31-1.87-6.39.93-12.15 7.55-15.2 6.54-3.01 12.28-1.25 15.93 4.61 2.87 4.61 5.66 9.33 9.07 13.52 10.52 12.91 24.11 19.51 40.97 19.56 11.08.03 21.88-.93 31.84-6.14 13.45-7.04 15.35-21.92 4.68-32.53zm-137.58 25.67c-.02 6.73 1.91 12.42 7.21 16.6 3.11 2.46 3.62 5.33 2.63 8.83-1.12 4-4.33 5.61-7.89 5.58-15.46-.1-30.92-.44-46.37-.92-3.41-.11-6.98-.64-10.13-1.86-4.58-1.78-5.61-7.34-1.74-10.4 7.74-6.11 9.8-13.81 9.31-23.31-.63-12.3 0-24.65-.2-36.98-.17-10.54-3.75-11.51-11.33-11.51-20.6 0-41.19-.6-61.79-.88-6.72-.09-8.72 1.83-8.62 8.51.23 15.12.46 30.25 1.06 45.36.2 5.09 1.65 9.73 5.87 13.7 2.94 2.77 5.98 7.88 5.33 11.23-.52 2.72-6.34 5.88-10.06 6.23-11.12 1.05-22.35.88-33.54 1.07-5.16.09-10.37.33-15.47-.29-3.27-.39-6.95-1.5-9.42-3.53-5.46-4.49-4.69-8.53.54-12.74 5.61-4.53 8.77-9.87 8.58-17.49-.6-24.45-.71-48.91-1.11-73.36-.23-14.46-.61-28.91-1-43.36-.17-6.48-1.74-12.35-6.97-16.87-3.53-3.05-7.44-6.71-5.62-11.86 1.83-5.18 7.58-5.41 11.89-5.57 9.77-.35 19.57.45 29.36.66 6.66.14 13.33.17 19.99.08 5.09-.07 9.81.7 11.91 6 1.97 4.97-.75 8.75-4.38 11.72-5.35 4.38-7.3 9.82-7.09 16.68.35 11.49.21 22.99.02 34.49-.08 4.5 1.57 6.29 6.12 6.22 11.66-.18 23.33-.06 34.99-.06 11.5 0 23-.22 34.49.11 4.29.12 6.05-1.89 6.05-5.4-.02-13.12-.37-26.25-.61-39.37-.03-1.5-.3-3.01-.15-4.48.33-3.37-1.42-5.28-4.21-6.57-6.98-3.23-8.75-5.73-7.71-10.92.92-4.59 6.78-9.29 12.12-9.38 7.83-.12 15.66.08 23.49-.01 8.31-.1 16.61-.3 24.92-.62 5.84-.22 11.64 3.65 13.29 9.14 1.48 4.93-.8 8.91-7.24 11.92-4.63 2.17-6.5 5.73-6.5 10.64.04 40.99.08 81.98-.02 122.97zM820.76 925.9c7.99 13.57 20.19 21.56 35.25 25.44 16.71 4.31 33.23 4.3 48.39-4.74 8.57-5.11 15.92-12.24 24.3-17.73 2.8-1.84 7.26-2.43 10.64-1.83 5.23.94 6.84 6.44 4.52 11.93-5.68 13.46-16.45 21.06-29.42 26.54-13.43 5.67-27.19 8.52-41.84 9.36-22.29 1.27-43.56-.91-63.58-11.41-27.06-14.2-42.77-36.67-48.71-66.36-3.59-17.93-1.69-35.25 6.14-51.77 8.7-18.35 22.17-32.3 40.02-42.01 14.98-8.14 31.14-11 48.04-12.17 13.69-.95 27.1-.57 40.39 2.34 11.96 2.62 23.71 6.15 34.24 12.72 7.04 4.39 10.37 10.82 10.41 19.16.02 4.79.99 9.59.83 14.36-.14 4.18-1.61 8.15-5.83 10.23-4.14 2.04-7.45-.13-10.38-2.6-1.96-1.66-3.52-3.88-4.98-6.03-1.76-2.59-3.38-5.29-4.78-8.08-5.49-10.91-15.71-15.11-26.3-18.92-14.64-5.26-29.21-5-43.69.45-15.03 5.65-24.38 17.2-29.51 31.67-3.76 10.6-5.27 21.99-6.68 28.21.89 21.42 4.18 37.05 12.53 51.24zM577.41 620.26c-14.49-24.78-18.73-53.19-24.08-80.99-5.62-138.45 97.4-224.74 202.3-228.63 124.65-4.62 219.72 96.69 218.86 210.2.86 113.71-93.19 215.46-218.76 210.66-33.87-1.29-65.78-10.36-95.39-26.99-35.73-20.08-62.51-49.34-82.93-84.25zm125.33 301.4c-5.35-6.71-12.11-11.29-20.96-13.22-19.32-4.21-38.66-8.5-57.62-14.06-19.68-5.76-30.48-24.01-32.17-44.42-2.41-29.07 24.82-52.8 46.87-57.44 11.28-2.37 22.88-4.66 34.31-4.56 18.5.16 36.35 4.48 52.43 14.46 10.11 6.27 10.82 22.25 6.23 31.19-2.93 5.71-15.03 4.02-18.71-2.46-4.24-7.46-9.38-14.08-16.63-18.81-12.03-7.85-42.73-9.52-55.32 5.76-8.84 10.74-6.96 29.12 7.67 33.44 18.79 5.54 37.9 10 56.88 14.89 13.5 3.47 26.33 8.49 32.96 21.72 3.44 6.87 5.58 14.75 6.6 22.39 1.59 11.91-.26 23.61-7.53 33.74-12.06 16.83-28.25 26.26-49.18 27.36-7.25.38-14.45 1.49-22.31 2.33-21.31-2.7-43.33-4.86-61.9-18.5-8.03-5.9-13.98-13.5-16.35-23.49-1.35-5.72 2.17-12.2 7.86-14.26 7.19-2.6 13.61-.51 16.5 5.38 11.79 24.01 36.12 36.46 62.01 31.36 6.74-1.33 13.63-2.92 19.84-5.73 10-4.52 14.54-19.53 8.52-27.07zM58.43 864.59l-1.2-1.05 6.97-8.23 1.26 1.14c-1.76 3.24-3.06 6.9-7.03 8.14zm10.41-16.08c-.4-.27-.8-.53-1.2-.8 3.05-4.25 6.1-8.49 9.15-12.74-1.24 3-2.35 6.07-3.88 8.91-.94 1.76-2.69 3.1-4.07 4.63zm44.35-70.35c-8.98 15.62-19.01 30.62-28.33 46.05-2.19 3.62-2.1 8.82-7.49 9.89 3.29-6.18 6.55-12.38 9.94-18.5 8.21-14.81 16.49-29.59 24.75-44.38 5.65-10.12 11.26-20.26 17.02-30.32 3.39-5.91 8.83-6.71 15.23-6.62 12.76.17 25.53-.5 38.3-.82 1.5-.04 3-.09 4.5-.09 27.41-.01 54.81.12 82.22-.04 22.47-.13 44.93-.55 67.4-.95 10.55-.19 21.09-.9 31.63-.91 53.9-.1 107.81.14 161.71-.18 12.36-.07 24.84 2.02 37.17-1.52 2.48-.71 5.66 1.57 8.52 1.58 30.17.13 60.33.23 90.5-.01 8.8-.07 16.96 1.55 25.17 4.69 8.13 3.11 16.72 4.99 25.11 7.43 1.04.3 2.04.76 2.93 2.09h-7.11c-26.83.01-53.66.12-80.5.02-81.61-.28-163.22-.57-244.83-.98-38.62-.19-77.25-.63-115.87-1.02-24.96-.25-49.92-.58-74.88-.95-16.73-.25-33.5-.06-50.17-1.23-8.52-.6-13.76 2.79-16.15 9.76-3.58 10.39-11.48 17.82-16.77 27.01zm305.09 67.33c-.03-8.44-.55-16.88-.97-25.32-.27-5.41-2.68-9.66-7.03-13.05-6.05-4.72-4.85-12.9 2.41-15.69 3.31-1.27 7.05-1.94 10.6-1.98 17.83-.19 35.67-.09 53.5-.09 17.5 0 35-.23 52.5.1 8.43.16 16.85 1.19 25.24 2.19 4.37.52 7.84 2.61 8.24 7.75.52 6.76 1.59 13.51 1.6 20.26.01 8.5-7.97 12.99-15.37 8.68-3.18-1.85-5.54-5.09-8.35-7.62-6.1-5.48-13.72-7.25-21.49-8.02-10.38-1.04-20.82-1.63-31.25-2.02-4.1-.16-8.28.46-12.34 1.18-5.92 1.06-7.63 3.47-7.97 13.28-.41 11.82-.04 23.66-.13 35.5-.03 3.54 1.89 5.56 4.98 5.56 15.35.01 30.78 3.27 46.02-.84 3.3-.89 6.48-2.4 9.56-3.93 7.71-3.83 15.86-3.23 15.4 9.54-.24 6.72-.34 13.64-2.05 20.06-1.7 6.38-7.15 8.45-12.29 4.63-9.57-7.11-20.19-7.28-31.22-7.16-7.27.08-14.54-.77-21.82-.88-8.15-.12-10.61 2.26-10.51 10.27.2 16.47.58 32.93.98 49.39.13 5.53 2.85 8.21 9.63 8.06 17.57-.39 35.16-.87 52.68-2.15 8.54-.62 14.6-7.17 21.22-12.01 2-1.46 4.03-2.89 6.17-4.13 6.13-3.56 12.17-1.01 11.94 5.98-.29 8.65-2.03 17.33-4.05 25.79-.55 2.29-4.09 4.64-6.73 5.46-3.71 1.16-7.86 1.06-11.83 1.27-8.12.43-16.25 1.02-24.38.97-16.12-.11-32.24-.63-48.37-.93-19.1-.36-38.21-.73-57.31-.98-4.68-.06-7.79-1.69-9.46-6.37-1.69-4.73.69-7.07 4.12-9.38 6.51-4.38 8.03-11.26 8.07-18.35.2-31.69.17-63.35.06-95.02zM314.87 946.62c-5.23-16.54-13.01-31.81-23.68-45.53-2.88-3.7-6.7-5.99-11.63-5.46-5.25.56-10.54.98-15.69 2.02-3.89.79-6.35 3.53-6.36 7.8-.03 13.33-.15 26.67.06 39.99.08 5.02 1.93 9.31 7.09 11.56 3.62 1.58 7.75 3.3 7.29 8.28-.36 3.85-6.95 8.27-11.82 8.31-8.83.08-17.66.02-26.5.02-8.5 0-17 .06-25.5-.03-4.83-.05-8.61-1.93-10.67-6.65-1.93-4.43-1.12-7.69 3.37-9.84 6.24-2.99 8.48-8.08 8.48-14.53.02-38.83-.03-77.66.04-116.49.01-8.4-2.72-15.49-8.58-21.55-1.87-1.93-3.69-4.44-4.28-6.98-1.19-5.12 3.44-9.18 10.17-9.1 17.13.21 34.25.62 51.38.91 21.76.37 43.53.53 65.29 1.13 10.28.28 20.25 2.45 29.57 7.17 20.6 10.42 26.99 37.19 16.61 56.45-5.8 10.76-14.58 17.76-25.14 23.04-8.1 4.05-8.86 6.13-3.67 13.58 10.32 14.85 16.5 31.61 22.84 48.32 2.98 7.87 5.83 15.63 13.69 20.62 5.32 3.38 4.4 10.05-1.41 12.75-3.67 1.7-7.92 3-11.91 3.01-16.12.03-32.25-.5-48.37-.84-4.54-.1-7.64-2.39-8.82-6.69-1.11-4.06.04-7.33 4.06-9.61 4.52-2.57 5.57-6.98 4.09-11.66zm1059.13 82.2c-24.26-.33-48.53.4-72.8.77-18.3.28-36.59.7-54.88.96-27.46.39-54.93.72-82.39 1.02-34.12.37-68.25.66-102.37 1.02-28.94.3-57.88.87-86.82.96-143.93.42-287.87.81-431.8.99-41.94.05-83.89-.58-125.83-.96-31.27-.28-62.55-.62-93.82-1.01-21.79-.27-43.57-.64-65.36-1-19.1-.31-38.21-.66-57.31-1.01-16.44-.3-32.89-.57-49.33-.97-4.13-.1-8.34-.32-12.35-1.21-1.77-.39-3.31-2.44-4.68-3.98-2.66-2.99-5.13-6.15-7.96-9.59 1.49-5.78-6.17-8.83-6.71-14.96 3.62 2.62 7.06 5.11 10.8 7.81-2.57 3.28-.29 6.37 1.63 10.23 3.62 7.32 8.81 9.03 16.59 8.71 21.09-.86 42.22-.84 63.33-1.2 17.77-.31 35.55-.56 53.32-1.04 19.66-.53 39.31-1.48 58.97-1.88 10.56-.22 21.13.39 31.7.48 4.12.03 8.25-.51 12.38-.52 25.16-.05 50.33.09 75.49-.05 47.13-.26 94.26-.74 141.38-1 26.61-.15 53.22-.03 80.58-.03-.74-1.85-1.03-2.57-1.49-3.73 3.2.31 6.06.63 8.92.87 8.09.66 16.18 1.83 24.26 1.84 72.99.14 145.98-.03 218.98.12 47.79.1 95.59.54 143.38.92 31.29.25 62.59.66 93.88 1.04 25.63.31 51.25.65 76.88 1.01 21.46.3 42.91.63 64.36.98 18.94.31 37.88.62 56.82 1.04 7.62.17 15.25.4 22.84 1.05 4.45.38 7.52-.93 9.64-4.82.6-1.11 1.56-2.03 2.35-3.03-2.14 6.01-4.79 10.27-12.58 10.17zm99.13-138.53c-11.41 16.97-22.99 33.82-34.51 50.7-.08.11-.3.13-1.64.66 2.43-4.82 4.32-8.92 6.52-12.83 4.95-8.78 10.04-17.47 15.1-26.18 3.32-5.71 6.6-11.46 10.07-17.08 2.04-3.31 2.22-6.47.33-9.84-9.95-17.71-19.79-35.49-29.98-53.07-1.07-1.85-4.21-2.51-6.72-3.9l3.76-4.85c4.08 5.92 7.68 12.08 12.19 17.49 10.31 12.35 16.61 27.18 25.65 40.27 4.7 6.81 3.21 12.71-.77 18.63z"/>
  <path d="M137.88 704.55c20.55-1.17 41.16-1.56 61.74-2.12 27.76-.76 55.53-1.38 83.29-2.05 13.96-.34 27.91-.72 41.87-.98 19.96-.37 39.92-.63 59.88-1.02 1.71-.03 3.41-.66 5.11-1.01-.02-.51-.04-1.03-.05-1.54-2.18-.42-4.36-1.14-6.55-1.21-25.07-.74-50.15-1.39-75.23-2.06-12.79-.34-25.58-.74-38.38-.98-21.12-.39-42.24-.63-63.36-1.04-3.56-.07-7.12-.69-11.13-1.11.39-2.15.21-4.04 1.03-5.24 10.54-15.4 13.95-32.43 13.51-50.91-.19-7.89 1.91-16.1 4.35-23.72 3.96-12.41 8.84-24.54 13.71-36.64 8.38-20.8 16.42-41.77 25.74-62.16 15.61-34.16 33.54-67.2 54.7-98.21 15.4-22.57 32.2-44.26 49.37-65.54 12.44-15.41 26.18-29.81 39.97-44.05 8.74-9.02 18.3-17.33 28.06-25.26 17.53-14.24 33.25-30.69 53.32-41.85 15.86-8.82 30.75-19.36 46.48-28.43 23.41-13.5 48.13-24.3 73.61-33.3 35.42-12.51 71.56-22.03 109.05-25.71 15.92-1.56 31.88-2.79 47.84-3.97 4.81-.36 9.66-.14 14.49-.03 3.37.08 4.36-1.19 3.75-4.56-1.02-5.6.9-8.55 5.76-11.42 1.46-.86 2.07-3.15 3.7-5.84-3.29 0-4.76.01-6.24 0-24.43-.23-48.8.58-73.03 3.95-12.4 1.72-24.88 3.07-37.17 5.41-11.27 2.14-22.37 5.21-33.47 8.19-9.56 2.57-18.92 5.91-28.51 8.32-9.67 2.43-18.14 7.75-27.72 10.54-9.42 2.74-18.33 7.37-27.31 11.49-8 3.67-15.65 8.12-23.72 11.62-7.91 3.43-14.12 9.84-22.5 12.32-.16.05-.32.1-.46.19-6.13 3.91-12.46 7.52-18.34 11.78-19.91 14.41-39.91 28.72-59.37 43.73-11.1 8.56-21.69 17.92-31.69 27.75-13.23 13-25.99 26.51-38.34 40.36-11.28 12.65-22.2 25.68-32.41 39.19-8.82 11.68-16.18 24.45-24.63 36.43-14.37 20.39-27.94 41.25-39.41 63.44-15.87 30.72-31.02 61.81-42.19 94.57-9.52 27.95-18.22 56.2-26.41 84.57-4.56 15.79-7.55 32.06-10.82 48.2-.95 4.69-2.92 5.79-7.85 4.23 11.71-62.27 30.17-122.48 53.71-181.34-2.07 2.51-4.51 4.96-5.86 7.91-4.32 9.44-8.69 18.9-12.23 28.64-9.19 25.3-18.39 50.62-26.74 76.22-5.48 16.82-9.65 34.07-14.03 51.23-1.03 4.02-.66 8.42-.7 12.65-.02 2.08.5 4.16.89 7.15-3.33-1.18-4.96-1.76-6.8-2.41.22-3.07.05-5.96.69-8.66 5.41-22.76 10.85-45.51 16.54-68.2 3.09-12.31 6.49-24.55 10.18-36.69 1.81-5.95 4.58-11.6 6.95-17.37 11.02-26.75 21.1-53.93 33.35-80.1 11.21-23.96 24.05-47.24 37.49-70.04 11.31-19.19 24.28-37.43 36.97-55.78 7.12-10.3 15.12-20 22.76-29.94 6.72-8.73 12.96-17.91 20.4-25.98 9.2-10 19.35-19.12 29.19-28.51 10.43-9.94 20.76-20.02 31.56-29.55 12.89-11.38 25.99-22.56 39.43-33.28 19.82-15.82 40.92-29.67 64.07-40.34 19.99-9.2 39.39-19.72 59.58-28.41 26.31-11.32 53.64-20.1 81.77-25.59 26.52-5.17 53.36-8.75 80.06-13 .62-.1 1.29.21 1.94.23 5.95.22 11.95 1.01 17.83.5 14.02-1.21 27.99-1.36 41.98.14 9.72 1.04 19.48 1.73 29.15 3.1 17.15 2.43 34.31 4.88 51.33 8.06 13.3 2.49 26.58 5.46 39.51 9.38 12.33 3.74 24.3 8.73 36.24 13.63 17.12 7.04 34.24 14.15 51.03 21.94 9.09 4.22 17.7 9.59 26.17 15 17.26 11.01 34.19 22.52 51.45 33.54 5.79 3.7 11.3 7.39 16.46 12.13 14.09 12.93 29.62 24.3 43.63 37.31 13.72 12.74 26.75 26.3 39.22 40.28 14.51 16.26 28.8 32.83 41.88 50.23 13.28 17.67 25.29 36.33 37.31 54.91 20.45 31.63 37.36 65.17 52.74 99.52 12.39 27.69 23.02 56.01 32.32 84.86 9.33 28.95 17.03 58.32 23.33 88.07.98 4.63 3.31 8.97 5.54 14.81-1.63 3.48-6.08 5.35-11.28 5.45-21.46.42-42.92.64-64.37 1.03-11.8.22-23.59.66-35.39.96-14.79.38-29.59.79-44.38 1.04-22.94.39-45.89.63-68.84 1.04-1.97.04-3.92.89-5.88 1.36.03.5.06.99.1 1.49 1.65.3 3.3.82 4.96.88 11.62.4 23.24.73 34.86 1.04 14.13.37 28.26.67 42.39 1.03 11.8.29 23.59.67 35.39.91 18.96.4 37.93.71 56.89 1.07 16.79.32 33.58.61 50.37 1.01 9.96.23 19.92.71 29.88.93 3.54.08 6.78-.97 7.33-5.09.34-2.61.36-5.4-.17-7.97-3.85-18.59-7.1-37.35-12.03-55.66-7.04-26.13-14.45-52.23-23.36-77.77-9.85-28.22-20.42-56.31-32.79-83.49-12.49-27.43-27.51-53.7-41.63-80.37-1.22-2.31-3.98-3.81-6.44-6.06-.21-.88-.22-2.92-1.13-4.41-6.68-10.99-13.35-22-20.38-32.77-19.14-29.35-41.13-56.56-64.9-82.19a806.488 806.488 0 00-54.28-53.23c-16.47-14.7-34.02-28.33-52.03-41.1a703.761 703.761 0 00-57.6-36.78c-16.8-9.62-34.61-17.55-52.19-25.76-25.36-11.84-51.81-20.84-78.88-27.78-17.04-4.37-34.27-8.21-51.61-11.18-16.43-2.81-33.08-4.4-49.69-6-4.61-.44-9.44.81-14.12 1.62-6.58 1.14-12.99 1.84-18.62-2.88h-24c-.67.36-1.31.99-2 1.04-11.92.72-23.86 1.09-35.75 2.12-12.19 1.05-24.45 2.01-36.45 4.28-33.32 6.29-66.11 14.66-97.98 26.55-28.47 10.61-56.11 23.01-82.37 38.16-19.27 11.12-38.05 23.22-56.2 36.08-28.03 19.86-55.25 40.83-78.87 66.05-10.28 10.97-21.37 21.21-31.23 32.53-14.76 16.95-29.15 34.27-43 51.97-24.88 31.78-46.45 65.84-64.91 101.66-14.34 27.83-27.1 56.5-39.68 85.19-6.94 15.84-12.38 32.37-17.87 48.8-3.77 11.29-6.3 22.99-9.71 34.41-3.1 10.37-7.34 20.45-9.86 30.95-5.13 21.34-8.95 43.01-14.35 64.29-2.21 8.8 2.62 15.5 11.72 14.98zM813.14 71.07c.42.44.84.87 1.27 1.31.15 3.88-1.44 5.78-7.17 4.48 2.42-2.38 4.16-4.09 5.9-5.79zm-18.91 13.35c.7-.87 2.57-1.02 3.95-1.08 7.03-.33 6.14 5.79 8.11 10.45-5.14-.04-8.84-1.86-11.47-5.54-.71-1-1.15-3.14-.59-3.83zm591.1 976.16c-8.46.26-16.91.66-25.37 1.01-15.42.64-30.84 1.34-46.26 1.93-19.23.73-38.47 1.38-57.71 2.06-8.94.32-17.88.54-26.81 1.01-5.1.27-10.18.94-16.62 1.56 2.06.67 2.8 1.09 3.56 1.13 17.54 1.06 35.07 2.31 52.62 3.03 16.1.66 32.22.67 48.32 1.15 4.07.12 8.12.95 12.5 1.5-.19 1.71-.2 3.21-.55 4.63-7.09 28.42-16.21 56.18-26.69 83.52-2.24 5.84-3.35 12.12-5.04 18.17-.2.73-.77 1.37-1.21 2.02-1.63 2.41-3.61 4.64-4.86 7.23-8.8 18.34-17.12 36.92-26.23 55.1-16.09 32.09-35.12 62.42-56.2 91.46-17.21 23.71-35.57 46.47-55.88 67.6-8.72 9.08-18.02 17.61-26.67 26.75-4.25 4.49-10.95 7.67-9.92 14.71-4.13 1.68-8.31 2.5-11.38 4.8-7 5.22-13.28 11.39-20.16 16.78-26.16 20.52-53.45 39.44-82.82 55.1-30.27 16.14-61.48 30.27-94.42 40.23-23.69 7.16-47.58 13.59-72.22 16.52-19.38 2.3-38.79 5.05-58.25 5.7-19.52.65-39.13-.84-58.67-1.82-10.36-.52-20.84-1.18-30.99-3.17-20.54-4.03-40.99-8.61-61.29-13.71a365.38 365.38 0 01-74.38-27.56c-21.75-10.86-42.96-22.91-63.9-35.29-27.7-16.37-52.66-36.6-76.62-57.93-13.21-11.77-25.48-24.65-37.57-37.6-11.96-12.8-23.93-25.71-34.5-39.64-15.05-19.82-29.45-40.21-43-61.09-25.02-38.58-45.41-79.61-62.22-122.43-1.48-3.78-3.9-7.18-6.33-11.55-.1-.98.03-3.27-.61-5.31-4.83-15.27-9.49-30.6-14.9-45.66-1.93-5.37-1.43-12.41-8.31-15.19 3.03-3.55 2.93-3.52 1.4-8.29-2.56-7.93-5.23-15.86-4.67-24.31 4.19-.5 7.77-1.15 11.38-1.31a4862.1 4862.1 0 0151.18-2.02c13.12-.45 26.24-.63 39.36-1.07 4.61-.15 9.2-.7 13.8-1.07-1.37-1.22-2.78-1.63-4.2-1.71-11.75-.7-23.49-1.44-35.25-1.96-17.58-.77-35.16-1.35-52.74-2.06-5.96-.24-11.91-.75-17.88-.94-21.92-.71-43.84-1.43-65.77-1.93-7.05-.16-10.08 4.15-8.23 11.16 5.2 19.78 10.36 39.57 15.79 59.28 2.17 7.88 5.01 15.58 7.66 23.74 2.24-1.54 3.66-2.51 5.08-3.49.45.29.9.58 1.35.88-.91 1.7-1.83 3.41-2.74 5.11-.59 1.1-1.91 2.42-1.65 3.26 1.64 5.33 3.53 10.6 5.57 15.79.76 1.92 2.16 3.59 3.5 5.75l5.04.65c-2.31 1.59-3.82 2.63-5.44 3.75.5 1.79.81 3.43 1.42 4.95 5.02 12.57 9.99 25.16 15.22 37.64 1.67 3.98 4.08 7.65 6.57 12.23.14 1.06.02 3.43.81 5.43 1.75 4.47 3.84 8.81 6 13.1 8.28 16.38 16.15 33 25.11 49.01 10.4 18.6 20.92 37.23 32.95 54.79 15.36 22.43 31.82 44.15 48.69 65.48 10.93 13.82 23.01 26.82 35.36 39.42 14.03 14.32 28.59 28.17 43.55 41.53 14.41 12.88 29.28 25.31 44.58 37.11 13.06 10.07 26.79 19.32 40.66 28.25 11.92 7.68 24.1 15.14 36.81 21.39 18.13 8.91 36.81 16.72 55.32 24.83 9.05 3.96 18.19 7.75 27.46 11.16 2.03.75 4.79-.46 7.54-.81 1.94 4.86 3.3 5.68 9.44 5.12 1.06-.1 2.25-.11 3.22.26 5.93 2.27 11.77 4.8 17.74 6.94 3.39 1.21 6.97 1.97 10.5 2.71 10.31 2.15 20.6 4.38 30.97 6.18 4.44.77 10.05-1.02 13.38 1.1 7.17 4.55 15.15 3.64 22.51 4.61 15.08 1.99 30.45 1.7 45.7 2.43 1.55.07 3.07.7 4.6 1.07h38l10.04-1.11c3.5-.39 6.99-.79 10.27-1.16v-7.61c5.29-.49 7.63 1.56 6.33 8.28 8.5-2.03 15.98-3.64 23.34-5.64 3.45-.94 6.57-3.3 10.25-.46.86.66 2.57.47 3.84.3 4.73-.64 6.89-4.08 8.52-8.09.98-2.41 3.43-4.58 5.06-2.01 4.33 6.82 11.01 5.16 16.19 4.03 15-3.28 29.87-7.4 44.48-12.14 11.6-3.76 22.82-8.73 34.07-13.5 20.71-8.77 41.83-16.78 61.86-26.93 29.17-14.79 56.35-33.03 82.57-52.6 3.5-2.61 6.41-6.02 10.19-9.62.37-.1 2.29-.03 3.35-.96 16.53-14.39 33.33-28.52 49.28-43.53 11.8-11.11 22.76-23.17 33.57-35.27 11.78-13.18 23.57-26.44 34.23-40.52 14.05-18.55 27.29-37.74 40.28-57.05 4.4-6.54 10.53-12.6 10.42-21.52-.01-.68 1.16-1.52 1.95-2.03 8.64-5.59 8.81-15.38 12.57-23.23 2.7-2.64 5.81-5.22 7.46-8.52 9.67-19.43 19.61-38.77 28.26-58.66 9.56-21.97 19.03-44.12 26.37-66.89 10.97-34.06 20.43-68.62 29.67-103.2 2.35-8.74 1.51-12.58-9.51-12.25zm-1220.32 61.93c-.3-.35-.61-.69-.91-1.04.86-2.22 1.72-4.45 2.65-6.86 1.8 1.14 3.28 2.09 5.09 3.24-2.44 1.67-4.63 3.16-6.83 4.66zm714.73 519.59c-2.77-.67-5.53-1.34-8.82-2.13 1.18-3 2.05-5.22 2.92-7.44.43-.13.85-.25 1.28-.38.81 1.95 1.63 3.91 2.44 5.86-.25.27-.49.54-.74.81l3.36 1.65c-.15.55-.29 1.09-.44 1.63zm479.21-538.98c-.48-1.42-.96-2.84-1.43-4.26-.64.23-1.27.46-1.91.69-.92 2.49-2.04 4.93-2.74 7.49-9.97 36.1-21.43 71.73-36.37 106.08-10.69 24.58-22.48 48.7-34.28 72.78-5.15 10.52-11.61 20.39-17.37 30.61-1.53 2.72-2.82 5.6-3.99 8.5-1 2.45-.33 4.05 2.36 5.41 3.22 1.61 5.98 4.14 9.13 6.41-.93.2-2.54.38-4.03.9-7.04 2.5-14.07 5.03-21.03 7.73-.9.35-1.41 1.74-2.08 2.67-12.37 17.1-24.03 34.79-37.3 51.16-14.98 18.49-31.15 36.04-47.28 53.55-10.55 11.45-21.73 22.37-33.07 33.05-7.78 7.33-16.76 13.41-24.42 20.85-7.91 7.68-17.65 12.59-26.39 18.96-13.98 10.18-28.95 19-43.4 28.56-22.06 14.61-46.05 25.43-70.36 35.51-18.45 7.66-36.97 15.45-56.06 21.17-17.62 5.28-35.99 8.18-54.14 11.57-13.11 2.44-26.37 4.03-39.59 5.85-4.59.63-9.24 1.07-13.88 1.18-18.13.43-36.27 1.05-54.39.88-9.21-.09-18.4-1.7-27.6-2.62-.49-.05-1.04-.34-1.45-.2-8.42 2.78-16.2-1.8-24.37-2.25-8.34-.46-16.6-2.58-24.86-4.15-11.31-2.15-22.74-3.92-33.84-6.89-11.74-3.14-23.3-7.1-34.68-11.4-15.93-6.03-31.82-12.24-47.34-19.25-15.25-6.88-30.38-14.21-44.89-22.51-16.33-9.35-31.91-20.02-47.83-30.1-5.93-3.75-12.19-7.05-17.77-11.26-6.07-4.58-11.55-9.94-17.22-15.03-17.07-15.33-34.83-29.98-50.99-46.22-20.64-20.74-40.19-42.57-57.63-66.18-3.28-4.45-7.76-8-11.14-12.39-2.53-3.29-4.02-7.36-6.25-10.92-14.52-23.19-29.62-46.04-43.56-69.58-16.98-28.68-31.4-58.72-43.57-89.78-7-17.86-13.98-35.74-20.28-53.86-5.03-14.48-8.85-29.38-13.59-43.97-1.13-3.47-3.77-6.44-4.78-9.54-.25-3.83-.3-7.69-.83-11.48-.43-3.1-1.52-6.09-2.13-9.17-.44-2.2-2.38-5.08 1.64-5.98 3.19-.71 5.76-.34 6.66 3.77 1.73 7.86 3.69 15.67 5.9 23.41 1.16 4.08 3.23 7.89 4.52 11.94.84 2.62.78 5.51 1.53 8.17 1.61 5.72 3.38 11.42 5.37 17.02.36 1.01 2.1 1.52 3.21 2.26.72-1.29 2.3-2.82 2.02-3.85-2.31-8.76-5.02-17.4-7.46-26.12-.71-2.55-.93-5.23-1.41-7.85-.77-4.2-1.53-8.41-2.36-12.6-.83-4.21-1.91-8.39-2.5-12.63-.16-1.12 1.09-2.44 1.69-3.67 1.18.7 3 1.13 3.41 2.14 1.3 3.2 2.06 6.62 3.03 9.95 3.24 11.09 6.34 22.23 9.84 33.24.79 2.49 3 4.53 5.1 7.57-2.97 4.57 0 10.12 1.8 15.46 10.39 30.76 22.55 60.83 36.53 90.14 17.91 37.55 38.92 73.31 62.42 107.6 6.8 9.93 13.72 19.83 21.34 29.13 13.44 16.41 27.01 32.77 41.36 48.38 13.47 14.66 27.38 29.04 42.23 42.28 33.2 29.61 68.9 55.89 108.2 77.04 34.95 18.81 71.16 34.4 109.45 45.26 23.6 6.69 47.49 11.63 71.66 15.39 9.44 1.47 19.08 1.74 28.65 2.28 14.23.81 28.53 2.46 42.71 1.79 21.23-1.01 42.48-3.07 63.55-5.92 17.14-2.32 34.29-5.53 50.99-10.02 29.05-7.81 57.62-17.1 85.11-29.77 32.92-15.18 64.14-33.18 93.3-54.52 18.07-13.23 35.13-27.93 52-42.69 12.61-11.03 24.74-22.73 36.1-35.04 12.51-13.57 24.17-27.97 35.68-42.42 8.92-11.21 17.04-23.05 25.5-34.62.68-.92 1.89-1.98 1.79-2.86-.71-6.41 4.67-8.37 7.88-12.24 5.92-7.14 10.8-15.27 15.36-23.41 10.83-19.37 22.14-38.57 31.57-58.63 11.82-25.15 22.42-50.91 32.71-76.74 11.51-28.9 19.13-59.05 26.94-89.11.66-2.55 1.39-5.09 1.99-7.66.7-2.97 2.72-3.36 5.32-3.05 3.11.36 2.6 2.18 2.05 4.31-4.33 17.08-7.86 34.4-13.08 51.2-7.69 24.78-15.87 49.46-25.16 73.68-7.81 20.36-17.33 40.08-26.46 59.91-4.42 9.6-9.68 18.82-14.58 28.19-2.38 4.54-4.83 9.05-7.24 13.58 8.71-8.08 14.21-18.38 19.59-28.64 8.69-16.58 17.45-33.17 25.01-50.28 9.29-20.99 17.88-42.33 25.83-63.87 6.74-18.26 12.3-36.97 18.05-55.58 2.87-9.3 4.89-18.87 7.57-28.24.38-1.32 2.14-2.77 3.52-3.11 1.3-.33 4.18.62 4.23 1.2.31 3.37.04 6.8-.16 10.2-.03.59-.51 1.3-.99 1.7-2.92 2.44-2.99 4.63-.23 7.49 1.32 1.37 1.53 3.82 2.25 5.77-.67.33-1.29.73-1.91 1.12z"/>
  <path d="M1081.45 1178.25c4.14 15.63 8.16 31.3 12.41 46.9 2.77 10.18 3.07 10.26 13.65 10.27 8.59.01 10.82-2.26 10.82-10.96V1134c0-11.92-.54-12.19-12.13-12.55-4.8-.15-6.69 1.95-7.41 6-.32 1.79-.29 3.65-.29 5.47-.02 11.82-.01 23.64-.01 35.46-.3.08-.6.16-.89.24-.54-1.51-1.19-3-1.6-4.55-3.23-12.11-6.6-24.2-9.52-36.39-1.02-4.26-3.48-6.66-7.32-6.9-4.9-.3-9.92.07-14.78.85-1.74.28-3.75 2.31-4.57 4.04-1.02 2.14-1.25 4.81-1.26 7.26-.09 19.82-.07 39.65-.01 59.47.01 1.94.66 3.88.88 5.83.24 2.22.56 4.47.45 6.68-.34 6.44-1.57 12.92-1.07 19.27.28 3.54-1.08 9.43 4.52 10.37 4.19.7 9.5.82 12.77-1.25 2.33-1.48 2.81-7 2.88-10.74.29-15.67.12-31.36.12-47.04 1.57.8 2.1 1.73 2.36 2.73zm-417.72-37.29c-1.69-9.85-6.33-17.28-16.25-18.55-11.03-1.42-22.33-.87-33.51-1.05-4.39-.07-5.43 2.95-5.43 6.64 0 33.16-.03 66.32.04 99.48.01 6.15 1.99 7.86 8.26 7.93 1.5.02 3 .04 4.5.01 6.05-.13 7.94-2.02 7.97-8.14.05-10-.13-20 .16-29.99.06-2.13 1.3-5.46 2.8-6 2.05-.73 5.3.04 7.22 1.36 1.6 1.1 2.69 3.86 2.86 5.97.64 7.9 1 15.84 1.1 23.77.16 12.72.95 13.58 13.72 12.95.33-.02.67 0 1-.04 4.09-.4 6.28-2.3 6.19-6.77-.17-8.83-.11-17.66 0-26.49.1-8.41-1.71-16.08-8.14-22.29 8.27-12.39 10.07-23.84 7.51-38.79zM642.36 1164c-.23 4.01-4.14 6.87-7.94 6.57-4.77-.37-5.18-3.72-5.09-7.45.06-2.49.01-4.98.01-7.46-.01-3.15-.03-6.3 0-9.45.03-3.48 1.55-5.67 5.26-5.83 3.87-.17 7.36 1.03 7.7 5.23.5 6.1.41 12.28.06 18.39zm405.85 43.48c.49-19.97.29-39.97.07-59.95-.11-9.65-3.2-18.59-11.77-23.72-11.07-6.63-22.9-6.29-33.95.38-9.08 5.48-10.91 14.83-11.03 24.58-.12 9.82-.03 19.65-.03 29.48-.01 10.49-.47 21.01.19 31.46.33 5.26 1.99 10.74 4.3 15.5 6.18 12.69 25.82 13.75 37.33 9.06 11.78-4.8 14.61-15.61 14.89-26.79zm-21.74.59c-.04 5.82-1.79 8.09-6.19 8.45-4.55.38-6.83-1.58-6.93-6.24-.38-18.75-.75-37.5-.96-56.26-.04-3.26.48-6.59 1.2-9.78.74-3.27 3.1-5.19 6.56-4.75 4.33.55 6.21 3.69 6.28 7.66.17 10.32.06 20.64.06 30.96 0 9.98.05 19.97-.02 29.96zm-137.61-24.59c-2.58-18.29-5.66-36.5-8.68-54.73-.66-3.98-2.21-7.26-7.12-7.38-5.45-.13-10.9-.72-16.34-.64-4.67.07-7.45 2.58-8.2 7.52-1.88 12.36-4.05 24.68-6.05 37.03-3.3 20.32-6.53 40.65-9.84 60.97-.65 3.99 1.98 8.21 5.92 9.1 8.66 1.96 13.81-1.75 14.79-10.67.11-.98.03-2.06.42-2.93.97-2.14 1.95-5.79 3.29-5.96 4.49-.57 9.34-.55 13.62.7 1.56.45 2.4 4.91 2.79 7.66 1.46 10.27 2.5 11.31 12.87 11.27.67 0 1.33.03 2-.01 4.96-.28 7.37-2.26 6.87-7.06-1.14-10.95-2.76-21.86-4.47-32.74-.18-1.17-2.23-2.13-3.53-3.02-.86-.6-1.92-.92-2.19-1.05 1.62-3.23 4.17-5.85 3.85-8.06zm-22.1 11.58c-2.27.61-5.06.65-7.2-.19-.92-.36-1.25-3.53-1.02-5.32 1.17-9.09 2.61-18.15 3.96-27.22.46-.1.91-.2 1.37-.31 1.55 9.51 3.21 19.01 4.55 28.55.2 1.47-.73 4.24-1.66 4.49zm-451.49 40.33c8.99 1.24 12.94-1.05 14.07-8.2.38-2.42.29-5.01 1.15-7.24.66-1.73 2.25-4.07 3.78-4.37 12.08-2.35 14.23-.73 16.28 11.27 1.17 6.89 3.18 8.54 10.4 8.55 1.33 0 2.67.09 3.99-.03 5.85-.5 8.16-3.45 7.24-9.29-.54-3.41-1.31-6.78-1.83-10.19-4.06-26.21-7.79-52.47-12.23-78.6-2.4-14.1.18-16.92-17.52-16.7-1.83 0-3.66-.03-5.49.01-6.27.13-8.68 1.76-9.98 7.93-1.49 7.09-2.43 14.29-3.59 21.45-2.21 13.65-4.42 27.3-6.61 40.96-1.82 11.36-3.74 22.72-5.36 34.11-.92 6.34 1.18 9.72 5.7 10.34zm24.06-74.24c.26 0 .53.01.79.01 2.12 9.59 4.33 19.17 6.3 28.79.79 3.86-2.72 7.03-6.7 6.37-1.3-.22-2.55-.69-5.17-1.43 1.58-11.11 3.18-22.43 4.78-33.74zm206.1 101.87c-6.43 5.71-7.71 13.35-7.83 21.11-.3 18.97-.04 37.94-.12 56.91-.08 18.16 10.38 28.69 28.63 28.46 4.49-.05 7.31-.74 5.8-7.22 4.56 4.33 8.39 4.08 12.26.77 5.6-4.78 7.93-11.18 8.03-18.06.31-21.13.32-42.27.03-63.4-.15-11.11-4.7-20.16-15.88-23.87-11-3.65-21.64-2.94-30.92 5.3zm27.07 21.82c.02 16.63.12 33.25-.08 49.88-.05 3.74-.74 7.65-2.06 11.12-.71 1.85-3.49 4.19-5.19 4.07-2.07-.15-4.57-2.26-5.79-4.21-1.12-1.78-1.01-4.47-1.04-6.76-.1-8.81-.04-17.62-.04-26.43h.03c0-9.14-.01-18.29 0-27.43.01-5.99 2.74-9.8 6.91-9.72 4.43.07 7.25 3.71 7.26 9.48zm115.37-123.58c1.35-.33 3.26-2.36 3.26-3.6-.01-7.29.16-14.69-1.12-21.81-.67-3.72-3.43-7.9-6.5-10.22-10.2-7.72-21.72-8.13-33.23-3.27-10.89 4.6-13.58 14.27-13.74 24.97-.15 10.33-.03 20.66-.03 31v30.5c0 .5.02 1 .03 1.5.36 12.35 6.92 22.69 16.38 24.59 5.61 1.13 11.54 1.8 17.19 1.28 8.24-.75 15.71-4.35 18.52-12.77 2.11-6.31 3.24-13.16 3.54-19.82.54-12.07-1.79-13.81-13.82-13.02-3.27.21-5.56 1.41-5.93 4.72-.51 4.6-.03 9.39-1.15 13.8-.7 2.76-3.09 5.87-5.59 7.2-2.8 1.5-5.92-.45-7.14-3.61-.81-2.09-1.17-4.48-1.18-6.73-.09-18.16-.11-36.33.03-54.49.02-2.76.36-5.84 1.65-8.15 1.02-1.83 3.73-3.7 5.7-3.71 1.86-.01 4.23 2.05 5.44 3.83 1.09 1.61 1.32 4.1 1.23 6.17-.55 12.79 5.89 14.24 16.46 11.64zm-238.05 73.86c4.28 1.68 12.8.19 14.63-2.39.53-.75.86-1.79.9-2.72.38-9.6.89-19.2.9-28.81 0-4.41.29-7.53 5.94-6.93 2.04.22 4.18-.72 6.29-.84 8.99-.53 17.78-7.8 19.97-16.63 3.08-12.42 2.77-25 .47-37.36-1.54-8.27-6.12-15.96-15.34-16.92-11.56-1.21-23.3-.75-34.96-.75-.99 0-2.48 1.76-2.87 2.98-.74 2.33-1.16 4.85-1.18 7.3-.1 15.49-.05 30.98-.05 46.47h.03c0 15.99.05 31.98-.04 47.96-.03 4.11 1.51 7.15 5.31 8.64zm16.55-67.19c-.16-3.47-.04-6.96-.04-10.44.01-3.81.09-7.62-.02-11.43-.09-3 .63-5.36 4.06-5.67 3.36-.31 6.83.39 7.57 4.05 1.69 8.37 1.9 16.88-.11 25.25-1.09 4.54-5.04 4.07-8.53 3.87-3.99-.22-2.83-3.38-2.93-5.63zm-78.45-46.64c-5.54-.14-6.42 3.33-6.41 7.79.04 32.62.01 65.23.04 97.85 0 1.48.03 3.06.53 4.41.42 1.13 1.44 2.68 2.4 2.84 3.73.63 7.56 1.19 11.32 1.01 4.38-.2 6.72-2.66 6.58-7.48-.23-8.15-.06-16.31-.06-24.46.01-8.47 1.14-9.63 9.67-9.85 1-.03 2 .06 2.99-.02 5.36-.42 9.73-3.5 10.97-8.39 3.48 2.84 5.19.82 6.43-1.87 1.17-2.53 2.52-5.1 3.03-7.8 2.11-11.3 1.72-22.72.48-34.05-1.1-10.1-7.19-17.43-16.92-19.02-10.12-1.64-20.68-.71-31.05-.96zm27.47 45.44c-.44 5.53-2.57 7.14-8.08 6.89-3.57-.16-5.03-1.89-5-5.35.06-7.16.06-14.32 0-21.47-.02-3.13.7-5.73 4.26-6.25 3.66-.53 6.98.57 7.88 4.37.98 4.15 1.02 8.52 1.47 12.79-.16.01-.32.03-.48.04-.01 2.99.18 6.01-.05 8.98zM675.52 1226c.01 6.79 2.59 9.38 9.32 9.41 11 .04 22 .04 33 0 6.83-.03 9.41-2.59 9.5-9.26.1-7.55-2.26-10.33-9.32-10.55-5.16-.16-10.33-.11-15.5 0-3.62.08-5.21-1.65-5.21-5.11 0-4.17.03-8.33.02-12.5-.01-10.56-.02-10.56 10.69-10.58 11.71-.02 12.39-.71 12.31-12.44-.04-5.22-1.83-7.12-7.13-7.33-3-.12-6 .03-9-.09-5.84-.24-6.88-1.38-6.87-7.14.01-4.67.17-9.34-.06-14-.21-4.27 1.46-6.15 5.79-6.03 5.33.15 10.67.12 16-.03 5.55-.15 8.24-2.87 8.24-8.43.01-9.51-1.98-11.09-10.92-11.24-10.11-.17-20.22.67-30.34.85-9.55.17-10.54 1.06-10.54 10.97v45.49c.01 16.01-.02 32.01.02 48.01zm36.28 34.88c-8.53 5.8-9.67 15.01-10.18 24.09-.52 9.3-.12 18.65-.12 27.98 0 9.49-.71 19.05.16 28.47 1.36 14.72 4.16 23.54 19.58 27.29 3.62.88 7.59.98 11.32.61 6.69-.67 13.3-2.59 17.41-8.27 6.6-9.12 6.44-19.82 5.05-30.35-.29-2.19-3.13-5.28-5.27-5.74-4.03-.86-8.72-1.57-12.18 2.15-.61.66-.94 1.77-1.02 2.7-.42 4.61-.25 9.34-1.24 13.82-.49 2.23-2.68 4.99-4.74 5.74-3.09 1.12-6.33-.14-7.28-4.03-.51-2.08-.93-4.24-.94-6.37-.08-17.16-.09-34.31-.01-51.47.01-2.29.55-4.6.97-6.88.62-3.39 2.66-5.39 6.16-5.19 3.65.21 5.66 2.4 6.07 6.06.34 3.12.15 6.49 1.31 9.28.92 2.23 3.23 4.49 5.47 5.39 2.29.92 5.26.4 7.91.15 3.34-.31 5.56-1.79 5.2-5.77-.27-2.97-.1-5.99-.07-8.99.09-10.1-3.51-18.46-12.97-22.71-10.32-4.64-20.84-4.6-30.59 2.04zm-87.63 60.29c-6.35-8.23-14.22-15.26-20.89-23.27-2.95-3.55-5.12-7.99-6.7-12.37-1.51-4.18 2-9.65 5.55-10.11 4.27-.54 7.16 2.74 7.39 8.4.05 1.16-.03 2.36.22 3.47.16.7.82 1.81 1.28 1.83 5.19.13 10.4.29 15.56-.09 1-.07 2.79-2.56 2.6-3.65-1.09-6.23-1.71-12.81-4.32-18.44-4.19-9.06-13.41-10.86-22.23-11.19-8.13-.31-16.46 2.09-20.8 9.38-9.61 16.14-8.5 27.89 2.5 43.3 5.25 7.35 12.42 13.32 18.66 19.97 3.65 3.88 5.91 8.31 5.53 13.88-.33 4.77-2.72 7.71-6.61 7.65-4.03-.06-6.42-2.84-6.6-7.65-.32-8.74-1.31-9.73-9.82-9.72-1.17 0-2.34.09-3.49-.01-4.04-.35-6.05 2.14-6.38 5.52-1.58 16.18 6.41 31.62 26.42 31.33 7.41.37 14.1-1.46 19.53-6.75 9.49-9.25 11.23-30.31 2.6-41.48zm174.35 38.38c.01 4.11.89 7.75 6.1 7.92 10.08.32 20.16.69 30.25.88 2.79.05 5.66-.17 8.36-.82 5.35-1.29 5.07-5.75 5.12-9.95.04-3.98-.94-7.43-5.39-8.18-3.58-.61-7.26-.76-10.89-.79-12.75-.09-12.67-.04-12.76-12.8-.11-15.76.93-14.37 14.5-14.4 5.29-.01 9.37-3.97 9.54-9.19.18-5.4-4.02-9.53-9.72-9.67-3.15-.08-6.3-.29-9.44-.46-3.79-.21-5.05-2.36-4.9-5.96.18-4.32.01-8.66.05-12.99.05-5.52 1.18-6.64 6.83-6.73 4.99-.08 10.03.31 14.98-.18 5.1-.51 7.8-2.44 7.23-11.23-.34-5.26-2.39-7.38-7.77-7.39-11.16-.03-22.32-.03-33.48 0-6.65.02-8.6 1.94-8.61 8.53-.03 15.32-.01 30.65-.01 45.97-.01 15.8-.04 31.62.01 47.44zm183.79-293.69c-25.54-1.39-51.18-1.01-76.77-1.27-36.94-.39-73.88-.87-110.82-.95-21.78-.05-43.57.66-65.36.93-31.6.39-63.2.65-94.8 1.03-21.78.27-43.56.69-65.34.97-8 .1-16-.08-23.99.04-1.62.02-3.24.79-4.86 1.21l.18 1.54c1.03.34 2.05.91 3.09.97 7.62.42 15.25.92 22.88 1.07 22.26.42 44.53.74 66.8.99 35.1.39 70.21.97 105.31.95 40.26-.02 80.53-.6 120.79-.93l118.34-.99c1.33-.01 2.7.2 3.99-.04 2.59-.48 5.13-1.2 7.34-1.74 20.08 1.62 39.45.67 58.81-1.13a229.43 229.43 0 00-20.18-1.92c-15.12-.8-30.23.09-45.41-.73zm-28.96 290.36c.08-8.77-.88-17.79.82-26.25 2.55-12.73 7.05-25.07 10.67-37.59 2.24-7.76 4.76-15.47 6.4-23.35.73-3.53 1.88-8.14-1.98-10.86-5.1-3.59-14.52.2-16.22 6.34-2.6 9.35-4.96 18.77-7.52 28.13-.45 1.64-1.39 3.14-2.52 5.61-3.07-11.96-5.59-22.86-8.81-33.56-.81-2.7-3.41-5.76-5.95-6.81-2.84-1.18-6.56-.47-9.87-.23-3.82.28-6.47 3.72-5.66 7.22.7 3.05 1.63 6.05 2.55 9.05 4.21 13.72 8.42 27.44 12.69 41.14 4.62 14.81 4.83 30.04 4.68 45.34-.02 2.09 1.13 5.2 2.73 6.14 9.29 5.45 17.89.31 17.99-10.32zm-13.1-215.88c10.41-.51 11.2-1.41 11.1-11.76-.04-4.01-1.34-6.93-5.76-7.04-14.76-.36-29.52-.75-44.28-.65-2.43.02-5.73.45-6.9 4.38-2.87 9.66.38 15.84 9.97 15.24 6.7-.42 7.1.33 7.11 7 .01 12.32 0 24.64 0 36.96 0 12.82-.14 25.64.1 38.46.06 3.37.34 7.5 2.25 9.9 3.39 4.28 8.83 2.99 13.49 1.94 4.47-1 6.11-4.17 6.08-8.89-.17-26.14-.08-52.28-.08-78.42.01-5.64 1.18-6.83 6.92-7.12zm116.26 271.98c2.17 3.28 6.75 4.42 11.09 1.76 4.91-3 9.66-6.45 13.85-10.38 11.49-10.78 22.82-21.73 33.83-33.01 3.76-3.85 6.34-8.84 9.82-13.84 3.51 3.12 5.36-1.82 7.12-4.03 10.15-12.72 20.15-25.57 29.76-38.7 22.18-30.32 39.6-63.29 53.6-98.11 1.89-4.69 3.98-9.3 6.04-14.1-.3-.99-1.12-2.5-1.09-3.99.03-1.32 1-2.62 1.56-3.93-3.21 3.29-5.64 6.93-7.64 10.8-2.36 4.57-4.22 9.39-6.49 14-10.89 22.09-22.79 43.62-36.88 63.86-8.45 12.13-16.95 24.22-25.46 36.31-.36.52-1.01.83-1.52 1.24-9.19 7.47-16.23 16.67-21.72 26.49-1.45.53-2.88.78-3.97 1.52-1.9 1.29-3.66 2.81-5.37 4.36-10.81 9.8-21.46 19.77-32.41 29.4-7.3 6.42-15.12 12.26-22.5 18.6-4.49 3.86-4.71 7.08-1.62 11.75zm-716.84-158.37c-5.63-8.67-10.12-18.08-15.26-27.4-1.67 1.39-3.15 2.62-5.81 4.83 9.87 18.39 19.03 36.98 29.56 54.75 20.03 33.82 44.49 64.35 72.03 92.35 9.13 9.28 18.86 17.99 28.74 26.47 4.47 3.83 9.8 6.79 15.12 9.4 1.79.88 5.29.21 7-1.08 4.84-3.67 3.97-9.65-1.01-13.82-15.96-13.36-32.15-26.46-47.54-40.46-17.16-15.61-32.98-32.66-46.58-51.5-12.6-17.46-24.52-35.46-36.25-53.54zm559.28 22.34c3.11-.32 6.95-.77 8.91-2.72 1.66-1.64 1.33-5.52 1.44-8.43.21-5.4-1.85-7.45-7.34-7.52-6.82-.09-13.64-.02-20.47-.02v-.02c-6.82 0-13.65-.15-20.46.09-2.01.07-5.5.96-5.69 1.97-.81 4.2-1.47 8.81-.41 12.81.49 1.88 4.92 3.6 7.7 3.82 8.43.68 8.87.81 8.88 9.4.01 12.48.13 24.96-.04 37.44-.14 10.28-.5 20.55-.98 30.82-.37 7.87 1.96 12.86 7.05 14.09 8.94 2.16 14.44-1.99 14.78-11.19.02-.66-.01-1.33-.01-2 .01-15.48.1-30.95 0-46.43-.05-8.12-.35-16.24-.68-24.35-.22-5.29 1.73-7.19 7.32-7.76zm71.76-155.57c-9.69-.7-11.42 1.27-12.2 10.99-.12 1.49-.04 3-.01 4.5.33 17.11.89 34.23.94 51.34.03 12.78-.77 25.56-.86 38.34-.05 7.77 2.85 9.7 12.81 9.52 6.45-.11 8.93-2.81 8.94-9.77.01-15.82 0-31.65 0-47.47s-.06-31.65.02-47.47c.04-8.24-2.37-9.46-9.64-9.98zm-149.03 75.88c1.25-1.17 2.53-3.07 2.55-4.66.17-20.49.19-40.99.06-61.49-.04-7.14-3.72-10.01-11.86-9.88-7.4.12-9.91 2.55-9.93 9.84-.04 15.66-.01 31.33-.01 46.99h.06c0 16.16-.14 32.33.06 48.49.09 7.83 2.51 9.55 11.77 9.51 7.24-.03 9.72-2.25 9.9-9.4.17-6.83.16-13.67-.05-20.49-.04-1.32-1.09-3.08-2.21-3.79-2.76-1.76-2.55-3.04-.34-5.12zm89.48 213.42l-.39-1.45H637.45c-2.17 0-4.41-.34-6.48.11-1.64.36-3.06 1.69-4.58 2.59.2.54.39 1.08.59 1.62 2.22.48 4.41 1.23 6.65 1.39 10.9.78 21.81 1.6 32.73 2.05 20.05.82 40.1 1.63 60.16 2 17.99.33 35.99-.08 53.99.18 4.43.06 8.36-1.52 13.35-.67 10.68 1.83 21.92 1.01 32.89.44 18.15-.94 36.28-2.5 54.41-3.88 7.93-.6 15.85-1.29 23.75-2.2 2.14-.24 4.17-1.42 6.25-2.18zm-125.01-146c-.02-1.97-1.71-5.43-2.97-5.6-4.63-.61-9.71-1.06-13.97.37-2 .67-3.47 5.74-3.54 8.85-.36 15.13-.16 30.27-.16 45.41 0 14.64-.01 29.28 0 43.92.01 9.57 4.55 13.13 13.93 11.33 5.02-.96 7.24-3.3 7-8.69-.4-9.06-.17-18.15-.17-27.22-.02-22.79.08-45.58-.12-68.37zm52.3 165.93c-.16-.51-.31-1.01-.47-1.52H688.27l-.27 1.65c1.18.45 2.33.99 3.55 1.33 20.06 5.49 40.76 5.79 61.29 6.83 12.24.62 24.59-.14 36.84-.96 13.29-.89 26.55-2.41 39.77-4.01 3.08-.37 6-2.17 9-3.32zm-238.28 21.56c-3.68-.67-5.4.85-6.35 4.29-2.44 8.87-5.08 17.7-7.67 26.53-2.95 10.02.38 10.47 7.66 10.14 1.65-.08 4.06.59 4.92 1.78 4.85 6.74 6.39 6.95 10.72-.11 4.23-6.89 8.15-13.98 11.97-21.11 1.79-3.34 3.03-6.97 4.36-10.07-5.49-4.1-8.41-1.49-10.91 2.47-1.41-3.68 1.43-9.15-3.99-9.42-2.76-.13-5.68 3.04-8.38 4.63.11-.34.77-1.41.73-2.45-.08-2.58 1.32-5.88-3.06-6.68zm-64.46-37.18c-3.63-1.63-6.23-.37-8.32 2.94-3.59 5.68-7.41 11.22-11.13 16.82-2 3.01-4.41 5.85-5.81 9.12-.75 1.75-.54 5.13.66 6.24 2.4 2.23 5.2 1.15 7.12-1.61 1.12-1.6 2.34-3.12 3.52-4.68l.78.51c-.65 2.18-1.35 4.35-1.93 6.56-.79 3.02-1.19 5.83 2.52 7.53 3.67 1.67 5.51-.29 7.27-2.98 5.24-7.97 10.71-15.8 15.66-23.95 1.32-2.18 2.37-6.19 1.27-7.81-2.03-2.99-5.3-.9-7.89.71-.17.11-.54-.11-.91-.2-.05-.45-.3-1.01-.14-1.4 1.39-3.42.89-6.2-2.67-7.8zm349.21 94.75c1 2.61.97 6.14 5.69 4.83 4.3-1.19 5.8-3.14 3.87-7.41-1.07-2.38-1.29-5.23-2.66-7.39-2.78-4.39-3.62-8.97-3.73-14.1-.06-2.87-1.72-6.04-3.49-8.45-4-5.44-9.56-2.85-14.55-1.84-5.57 1.13-6.7 2.88-5.35 8.29 2.47 9.92 5.14 19.79 7.95 29.61 1 3.49 4.3 4.56 7.17 3.48 1.28-.48 2.07-3.86 2.02-5.9-.08-2.96-1.12-5.9-1.75-8.85.63-.13 1.26-.27 1.89-.4.98 2.71 1.91 5.44 2.94 8.13zm-126.13-20.56c-2.83-.1-5.03.29-5.17 3.72-.38 9.58-1.05 19.16-1.02 28.73.02 6.86 4.19 10.35 11.1 10.44 5.77.07 10.39-3.33 10.62-8.17.45-9.27.72-18.54.99-27.82.04-1.3.15-3.06-.59-3.82-1.3-1.33-3.2-2.72-4.91-2.79-1.06-.05-3.08 2.21-3.19 3.55-.63 7.4-.75 14.84-1.15 22.26-.12 2.17-.59 4.32-.9 6.48-.63-.09-1.25-.18-1.88-.28-.13-1.91-.36-3.83-.37-5.74-.04-7.48-.07-14.97.04-22.45.04-2.61-.7-4.01-3.57-4.11zm252.91-31.13c.71.24 1.41.49 2.12.73 1.47-2.17 3.19-4.21 4.31-6.55.73-1.53.59-3.48.84-5.24 1.57.41 3.14 1.17 4.7 1.14 2.05-.05 4.67-.11 5.95-1.32.96-.91 1.02-4.35.07-5.45-7.26-8.38-14.88-16.44-22.35-24.63-3.03-3.32-6.03-2.3-9.28-.31-3.33 2.04-3.2 5-1.94 7.82 5.06 11.32 10.36 22.55 15.58 33.81zm-89.42 38.74c1.22-.37 3.23.08 4.17.96 2.29 2.14 4.5 3.45 7.35 1.35 3.13-2.31 1.08-4.84-.13-7.02-5.12-9.22-10.5-18.3-15.58-27.54-1.41-2.57-2.78-4.04-5.78-2.66-2.94 1.35-7.28 1.13-7.2 6.31 2.55 12.02 5.04 24.05 7.75 36.03.17.75 2.15 1.79 2.96 1.55 2.64-.77 5.35-1.72 4.61-5.65-.2-1.03.93-3.05 1.85-3.33zm-195.88-10.46c-4.66-.64-7.38 1.37-8.78 6.64-2.59 9.73-5.24 19.45-7.54 29.25-.37 1.6.91 3.58 1.43 5.39 2.18-.64 4.53-.96 6.48-2.02 1.38-.75 2.23-2.5 3.48-4.01 3.69 3.34 4.58 10.23 11.65 6.75.05-1.13.21-2.59.17-4.05-.3-9.77-.78-19.54-.91-29.32-.04-4.44-.85-7.93-5.98-8.63zm76.21 33.34c-1.88-6.08-6.34-2.53-10.11-3.3.54 2.54.85 4.48 1.37 6.36 1.5 5.42 6.51 9.06 11.29 8.29 6.44-1.04 10.28-5.25 10.13-11.43-.12-4.84-2.18-8.7-5.89-12.01-3.1-2.76-5.55-6.26-8.75-9.96 4.45 1.23 7.62 2.1 10.88 3 1.56-8.97-.62-12.68-7.41-13.93-5.82-1.07-12.18 3.22-12.52 9.12-.31 5.59 1.23 10.68 6.13 14.43 2.71 2.07 4.84 4.94 7.05 7.59.39.47-.1 1.67-.19 2.53-.67-.22-1.85-.29-1.98-.69zM570.69 1450c.96 2.81 5.28 4.67 6.57 2.56 1.45-2.36 2.66-5.57 2.3-8.18-.79-5.61-6.69-9.26-12.66-8.78-4.48.36-9.54 6.03-9.3 11.23.26 5.41 1.38 10.77 1.84 16.18.12 1.48-.8 3.04-1.24 4.56-.51-.07-1.02-.14-1.53-.2 2.39-5.97-.75-8.3-5.96-9.59-.75 1.25-1.53 2.5-2.24 3.78-3.62 6.53-.68 12.15 5.34 14.97 5.85 2.74 12.39.34 14.27-6.36 1.19-4.23.41-9.08.21-13.64-.14-3.23-.8-6.43-1.22-9.64.72-.21 1.43-.42 2.15-.62.49 1.25 1.04 2.47 1.47 3.73zm277.38 37.4c2.19-1.43-.3-6.86-2.91-6.52-5.01.64-10 1.58-14.9 2.78-1.32.32-2.3 2.05-4.2 3.85 2.01 1.77 3.29 2.71 4.34 3.87 1.5 1.66 3.57 3.29 4.08 5.27 1.96 7.6 3.55 15.31 4.95 23.04.52 2.87 1.43 4.75 4.56 4.68 3.46-.08 4.69-2.32 4.31-5.35-.68-5.52-1.97-10.98-2.39-16.51-.4-5.07-4.62-10.68 2.16-15.11zm103.65-2.49c1.64 3.68 4.12 4.2 7.14 3.12 3.25-1.17 6.43-2.77 9.27-4.72 1.19-.82 2.29-3.38 1.84-4.53-.54-1.38-2.7-2.77-4.3-2.94-1.96-.21-4.06.82-6.37 1.39-4.59-8.76-9.08-17.6-13.93-26.25-.67-1.19-3.41-2.23-4.65-1.8-1.39.49-2.59 2.61-3.06 4.25-.35 1.22.4 2.91 1.02 4.22 4.33 9.09 8.94 18.06 13.04 27.26zm43.76-18.57c-5.8-10.2-11.54-20.22-17.2-30.28-1.71-3.05-4.29-4.64-7.35-2.97-3.37 1.85-2.39 5.24-.92 7.9 4.64 8.37 9.43 16.65 14.32 24.87 4.01 6.71 5.51 6.77 11.15.48zm-335.97 26.65c-.04 4.82 1.36 6.33 5.67 6.43 3.85.09 6.17-2.29 6.19-6.13.01-4.15-2.41-6.31-6.09-6.32-3.68-.01-6.36 1.91-5.77 6.02zm-340.28-275.66c-3.48-7.38-6.96-14.76-10.44-22.15-.59.27-1.18.55-1.78.82 3.47 9.2 6.88 18.43 10.52 27.57.34.84 2.11 1.12 3.21 1.65.22-1.14.81-2.37.56-3.39-.38-1.57-1.36-3-2.07-4.5zm304.76 195.99v-5.15c-3.78 1.04-7.1 1.96-10.43 2.88.07.33.15.66.22.99 3.3.41 6.59.82 10.21 1.28zm-88.7-345.09H522.1c-.01.35-.02.69-.02 1.04 4.38.33 8.76.66 13.14.98.02-.67.05-1.35.07-2.02zm591.09-771.28c20.5 19.33 39.85 39.83 57.21 62.06 12.98 16.62 26.16 33.18 37.8 50.72 13.56 20.43 26.38 41.46 37.98 63.06 12.06 22.46 22.89 45.63 33.09 69.01 8.52 19.53 15.38 39.78 22.88 59.75.91 2.42 1.95 4.78 4.7 3.53 1.17-.54 2.12-3.56 1.75-5.12-1.45-6.07-3.37-12.04-5.29-17.99-9.88-30.71-21.36-60.84-35.1-90.01-15.4-32.69-32.18-64.7-52.24-94.86-1.15-1.73-3-3-4.99-4.94-.17-.79-.15-2.67-.96-4.07-1.66-2.84-3.86-5.36-5.69-8.11-17.2-25.9-36.76-49.98-57.54-73.03a471.794 471.794 0 00-33.34-33.45c-15.78-14.31-31.76-28.51-48.67-41.42-16.22-12.39-33.31-23.81-50.82-34.33-17-10.22-34.85-19.09-52.64-27.92a292.51 292.51 0 00-32.92-13.89c-16.99-5.97-34.1-11.8-51.52-16.33-17.52-4.56-35.41-7.79-53.26-10.96-12.53-2.22-25.27-3.32-37.9-5.01-7.56-1.02-10.2.25-13.33 6.79-.5 1.05-.83 2.41-1.67 3.03-3.69 2.72-2.23 6.38-.68 8.79 1.17 1.81 4.55 2.79 7.05 3.03 10.19.97 20.58.62 30.6 2.38 23.01 4.05 45.96 8.57 68.73 13.78 28.27 6.46 55.21 17.03 81.41 29.27 29.71 13.88 58.15 30.07 85.06 48.94 24.81 17.43 48.26 36.52 70.3 57.3z"/>
  <path d="M1047.97 282.91c1.16-1.14.55-4.1.75-6.22-1.97.08-4.24-.44-5.86.35-7.45 3.62-14.83 7.42-22.02 11.53-9.48 5.42-20.33 8.97-26.32 19.1-2.13-.56-3.92-1.03-5.85-1.54 1.71-3.32 7.71-3.94 4.71-9.94-3.52 1.27-7.06 2.55-11.71 4.22 4.2-7.59 7.74-14.1 11.41-20.54 1.14-2 2.31-4.28 4.1-5.54 2.33-1.64 4.29-3.53 2.61-5.91-.96-1.36-4.02-1.69-6.13-1.66-1.64.02-3.39 1.13-4.88 2.09-2.77 1.79-5.13 4.55-8.12 5.55-3.45 1.15-6.92 5.26-11.57 1.49 1.47-2.14 2.88-3.92 3.98-5.88 2.29-4.09 2.88-8.46.45-12.61-2.43-4.15-6.62-6.21-11.2-5.62-11.6 1.48-21.49 6.13-27.77 16.75-2.64 4.47-6.75 6.44-13.33 5.83 1.82-2.81 2.79-5.15 4.46-6.72 4.7-4.4 9.9-8.26 14.52-12.74 7.37-7.15 6.73-11.64-2.26-16.93 1.62-1.29 3.16-2.47 4.64-3.71 5.03-4.19 11.32-7.31 12.98-14.45.34-1.45.41-3.77-.42-4.46-.94-.78-3.11-.48-4.6-.09-1.56.41-3.07 1.32-4.39 2.29-5.57 4.08-11.1 8.21-16.57 12.41-9.75 7.47-19.45 15-29.18 22.51-.47-.21-.94-.42-1.41-.62 3.42-9.87 6.84-19.75 10.33-29.8-4.83-1.24-8.92-.49-12.62 3.68-3.65 4.12-7.91 7.73-12.19 11.22-1.09.89-3.26.46-5.49.7 1.55-3.77 2.53-6.24 3.57-8.67 2.07-4.8-.38-8.88-3.4-11.59-2.3-2.06-6.75-3.39-9.72-2.72-12.33 2.77-20.4 10.76-24.89 22.57-.96 2.53-2.56 4.95-4.39 6.96-1.01 1.12-3.08 1.27-4.68 1.86-.1-1.79-.93-4.01-.17-5.29 2.57-4.37 5.62-8.48 8.65-12.56 1.86-2.5 5-4.5 5.79-7.24.99-3.44.16-7.41.12-11.15-2.76.05-5.52.05-8.28.17-1.35.06-2.7.32-4.44.55.5-2.37 1.18-4 1.08-5.57-.11-1.85-.36-4.39-1.56-5.28-1.06-.79-3.67-.12-5.29.59-4.9 2.14-8.08 9.21-7.43 14.44.28 2.26-.24 4.95-1.29 6.97-1.74 3.33-4.16 6.32-6.39 9.38-1.46 2-3.1 3.86-5.31 6.58-1.17-3.42-1.68-5.71-2.69-7.74-2.85-5.68-.27-9.87 3.18-14.18 5.47-6.85 10.92-13.75 15.84-20.99 2.05-3.01 3.01-6.88 3.9-10.5.3-1.24-.77-3.55-1.88-4.17-.85-.48-3.2.53-4.12 1.56-4.41 4.9-8.73 9.91-12.75 15.13-5.86 7.62-11.44 15.47-17.14 23.22-.34-.16-.68-.32-1.03-.47.21-.73.45-1.45.64-2.18 1.73-6.58-.15-12.31-5.2-15.81-4.02-2.79-9.29-2.11-14.54 1.83-7.85 5.9-12.61 13.79-14.59 23.3-1.87 9 2.19 16.63 10.13 19.24 2.77.91 5.71 1.28 8.21 1.82-1.05 6.05-2.07 11.72-3.02 17.4-.68 4.08 2.1 10.29 5.71 11.78 4.01 1.65 7.59.39 9.95-3.24 4.32-6.64 8.42-13.41 12.65-20.1 1.58-2.49 2.73-5.83 5.02-7.21 9.41-5.66 15.68-13.95 21.26-23.03.82-1.33 2.45-2.16 3.71-3.22-1.96 5.11-5.51 8.98-7.02 13.54-1.42 4.27-1.88 9.61-.6 13.82 1.69 5.59 6.25 6.3 15.29 4.7 1.52-.27 3.85.02 4.76 1.01 5.13 5.61 11.8 6.3 18.32 4.98 4.79-.97 7.41.05 10.5 3.57 5.83 6.64 19.94 8.66 25.77 4.14 3.14-2.43 5.94-5.3 9.03-7.79 6.1-4.92 12.17-9.98 20.96-9.75-.27.65-1.02.79-1.45 1.23-5.29 5.34-11.29 10.19-15.59 16.25-4.62 6.49-1.73 12.72 6 14.74 3.48.91 7.28.59 11.33.85 2.94 9.5 11 11.77 20.18 11.92 3.25.05 5.38.64 6.97 4 3.57 7.51 9.7 11.48 18.28 11.15 2.42-.09 4.84-.01 7.43-.01 0 1.56.28 2.51-.05 3.15-1.54 3.04-.9 6.42 1.82 7.17 2.02.56 4.98-1.78 7.33-3.15 1.19-.69 1.75-2.51 2.94-3.12 13.11-6.69 26.41-13.02 39.38-19.97 4.49-2.42 8.48-6 12.16-9.61zm-263-74.14c.29 6.59-4.81 12.31-10.82 12.15 4.19-4.7 7.51-8.42 10.82-12.15zm-4.52 30.73c-6.07 2.27-9.2.08-9.12-6.4.01-.98.13-1.97.24-3.61 7.47-.26 15.1 1.29 20.6-5.52-3.44 5.75-4.62 12.88-11.72 15.53zm3.19 25.04c3-6.57 6-13.15 9.08-19.89 4.21 3.98-.65 15.49-9.08 19.89zm75.53-11.93c-5.4-.62-6.88-5.36-3.75-11.57 5.51.63 10.96 1.26 16.73 1.92-1.28 5.7-7.53 10.28-12.98 9.65zm.25-19.67c4.83-3.51 8.79-6.39 12.76-9.27-.84 6.39-6.26 10.08-12.76 9.27zm24.73 25.71c-5.39-6.7-2.76-12.56 6.44-14.62-2.27 5.16-4.17 9.48-6.44 14.62zm68.37 27.87c-1.44.27-3.07.35-4.46-.04-2.04-.56-5.15-1.2-5.62-2.57-.79-2.28-.01-5.18.45-7.76.18-.99 1.28-1.82 1.2-1.72 6.02 1.97 10.97 3.59 16.25 5.32-.55 4.07-3.7 6-7.82 6.77zm-1.2-17.82c3.79-4.87 8.54-6.36 14.1-7.1-2.3 5.09-7.9 8.01-14.1 7.1zm15.55 27.89c-1.24-7.74.95-10.25 10.81-11.79-3.34 4.73-3.86 10.92-10.81 11.79zm-314.3-48.33c.23 9.66 8.27 15.78 15.4 10.29 6.76-5.2 12.98-3.74 19.85-4.42 11.37-1.12 17.85-8.61 19.31-19.95.21-1.65-1.59-3.55-2.47-5.34-1.19 1.25-2.6 2.36-3.51 3.79-1.09 1.72-1.76 3.71-2.61 5.58-.61-.01-1.22-.02-1.83-.02-2.29-11.62-4.58-23.24-6.93-35.15-3.61.47-7.12 1.37-8.29 6.27-1.45 6.06-3.22 12.04-5.1 17.98-.39 1.23-1.68 2.6-2.88 3.08-4.4 1.76-5.09 4.66-4.23 9.06 1.65 8.45.8 9.74-6.11 12.81 0-2.89-.3-5.42.06-7.85.74-4.9 1.82-9.74 2.8-14.6 2.32-11.61-.34-17.18-11.28-15.39.53-7.73 1.35-15.22 1.35-22.71 0-2.01-2.52-4.03-3.88-6.04-1.24 1.53-3.07 2.86-3.62 4.61-6.68 21.09-11.58 42.57-14.4 64.55-.45 3.55-3.16 7.26-5.78 9.96-3.19 3.29-8.01 1.79-8.68-2.76-.88-5.96-.81-12.12-.58-18.17.1-2.68 1.59-5.31 2.46-7.96l1.42-.06c.64 6.15.55 12.85 10.25 13.23V234.7c0-5.92-4.39-7.48-8.84-9.28-4.2-1.69-7.18.41-9.58 3-2.18 2.34-3.81 5.37-5.07 8.35-3.7 8.72-4.67 17.7-1.05 26.9-.38.15-.76.29-1.14.44-.4-.44-.94-.82-1.18-1.34-3.94-8.83-10.63-16.3-12.16-26.39-.71-4.64-4.24-5.11-6.73-.97-1.49 2.48-1.57 5.91-1.88 8.95-.53 5.19-.59 10.42-1.19 15.6-.14 1.25-1.62 2.34-2.48 3.5-1.02-1.14-2.18-2.19-3-3.46-.61-.95-.68-2.22-1.13-3.29-2.68-6.33-13.19-8.5-18.19-3.79-8.77 8.26-9.81 30.2-1.87 39.34 4.36 5.02 10 8.22 16.25 5.57 4.57-1.94 8.7-5.87 11.85-9.84 2.35-2.97 4.53-3.86 7.86-3.56 6.11.55 11.59-.86 15.66-5.72 3.44-4.12 6.69-8.2 13-5.38.76.34 2.02-.01 2.87-.41 4.26-2.06 8.31-4.71 12.74-6.23 3.59-1.23 4.6-3.53 5.19-6.7 1.33-7.1 2.33-14.31 4.34-21.22 1.24-4.29 4.09-8.11 6.21-12.15.43.24.87.48 1.3.72-.53 3.36-1.15 6.71-1.56 10.08-.44 3.6-1.03 7.24-.94 10.84zm30.42-17.93c2.32 5.95 5.46 11.01 1.4 16.73-5.87-3.44-5.89-3.6-1.4-16.73zm-114.92 27.75c.69 6.49 1.34 11.68-3.39 16.65-.73-6.08-.7-11.13 3.39-16.65zm10.11 29.38c-4.11 5.01-7.67 4.8-11.15-.7-.69-1.08-1.15-2.31-1.22-2.45 4.9-3.96 9.42-7.6 13.79-11.13 2.96 5.25 2.75 9.2-1.42 14.28zm16.95-10.55c-1.52-2.16-3.86-4.16-4.33-6.53-.54-2.7.6-5.73 1-8.61l1.31-.39c1.77 4.33 3.64 8.63 5.13 13.05.15.42-2.02 1.63-3.11 2.48zm59.34-62.47c-.09 0-.16-.05 0 0zM449.62 338.68c1.56-1.87 3.73-3.24 5.64-4.8 5.49-4.5 11.41-8.59 16.28-13.69 1.76-1.84 1.95-6.36 1.14-9.15-.8-2.74-3.65-5.64-7.37-4.36-3.61 1.25-7.58 2.61-10.29 5.12-14.84 13.7-29.94 27.2-43.79 41.87-13.81 14.63-26.7 30.2-39.19 45.98-20.37 25.74-34.62 55.23-49.52 84.22-7.67 14.93-13.79 30.67-16.76 48.66 1.14-1.66 1.86-2.51 2.36-3.48 4.54-8.8 9.23-17.54 13.54-26.46 12.94-26.79 27.88-52.43 45.8-76.14 11.83-15.65 24.8-30.48 37.81-45.19 8.37-9.46 17.78-17.99 26.6-27.05 1.13-1.16 1.4-3.13 2.32-4.56.95-1.5 2.02-3.81 3.35-4.04 4.97-.88 8.85-3.08 12.08-6.93zm675.6 47.94c11.35 13.94 23.4 27.32 34.32 41.58 18.85 24.63 34.6 51.22 48 79.22 1.05 2.19 3.44 3.73 5.21 5.58.64-.43 1.27-.87 1.91-1.3-.45-2.69-.48-5.55-1.45-8.04-2.46-6.3-5.11-12.54-8.09-18.6-12.54-25.58-26.3-50.44-42.86-73.7-15.38-21.61-32.25-41.97-50.78-60.93-7.31-7.48-14.96-14.65-22.69-21.71-6.22-5.68-12.62-11.18-19.28-16.33-3.26-2.51-7.34-3.14-11.01-.18-5.66 4.55-4.06 12.9 2.87 17.25 6.4 4.02 13.27 7.78 18.5 13.07 14.84 14.99 31.94 27.62 45.35 44.09z"/>
  <path d="M539.26 290.63c.37-.63.6-1.05.86-1.45 6.42-10.15 12.27-20.48 9.19-33.23-1.61-6.64-5.02-12.03-11.85-14.2-6.36-2.02-11.44.67-15.83 5.21-8.22 8.49-14.81 18.11-19.96 28.7-1.22 2.51-1.71 5.37-2.79 8.9 9.13-1.78 12.15-9.34 18.18-14.04.52 5.78.64 10.9 1.52 15.89 1.75 9.93 3.59 19.86 6.03 29.63 1.35 5.41 4.62 6.82 9.74 5.56-1.01-6.81-2.02-13.64-3.15-21.29 9.11 3.14 17.26 5.95 26.1 9 .43-13.72-12.71-12.28-18.04-18.68zm-7.86-6.7c-.58-.24-1.15-.47-1.73-.71-1.02-5.82-2-11.64-3.07-17.45-1-5.4 1.92-12.36 6.85-14.62 1.25-.57 4.2.37 5.06 1.56 3.29 4.6 2.38 9.99.7 14.76-2.03 5.69-5.16 10.99-7.81 16.46zm241.74-90.9c1.33-7.17-4.93-18.2-13.66-17.62-12.04.8-22.38 5.39-32.31 11.52-.88.54-1.32 1.81-2.29 3.22 4.44.24 7.96.42 11.91.63-.52 1.51-.75 2.26-1.03 3-4.8 12.66-10.03 25.17-14.26 38.02-2.77 8.39-2.91 11.96 3.89 15.71 2.7-6.65 5.37-13.25 8.25-20.33 1.56 1.47 2.48 2.19 3.23 3.05 3.97 4.63 7.85 9.35 11.9 13.92.76.85 2.63 1.86 3.17 1.52 1.09-.69 1.97-2.19 2.27-3.5.27-1.18-.08-2.7-.63-3.84-2.48-5.15-5.14-10.22-7.98-15.82 1.21-.66 2.76-1.51 4.31-2.34 11.23-6.06 20.71-13.55 23.23-27.14zm-32.18 17.63c2.93-7.05 5.22-14.47 9.05-21 2.21-3.77 7.43-5.08 12.06-4.06 3.85.85 2.66 4.03 1.65 6.45-4.13 9.91-11.67 16.05-22.76 18.61zM473.19 532.8c.31 8.46 2.92 13.88 7.89 15.84 6.24 2.45 15.16 1.14 18.74-3.22 4.22-5.14 4.48-11.51 2.95-17.46-1.42-5.53-2.12-10.44 0-16.06 2.29-6.09-.95-14.6-5.58-17.28-5.62-3.25-11.35-2.85-17.13-.28-5.75 2.55-5.13 7.63-5.72 12.64-.77 6.57 3.59 12.98.13 19.57-.94 1.81-.88 4.15-1.28 6.25zm15.36-29.05c1.22 1.47 2.45 2.93 4.05 4.85-1.43 2.25-2.47 3.89-3.51 5.53-1.24-1.88-3.19-3.66-3.49-5.69-.21-1.39 1.89-3.11 2.95-4.69zm-2.74 24.97c.16-.9 1.75-2.11 2.71-2.13.94-.02 2.71 1.28 2.72 2.03.06 3.45-.36 6.91-.68 11.25-6.45-3.13-5.43-7.29-4.75-11.15zm551.67 10.39c-4.41-6.76-4.41-6.76-12.87-6.15 0 2.21-.19 4.19.03 6.13.8 6.98 6.41 11.44 14.04 11.31 7.6-.13 13.39-4.84 13.55-11.77.27-11.53.26-23.08-.01-34.61-.14-6.11-4.49-10.65-9.86-11.31-9.67-1.2-15.05 1-16.88 8.06-1.34 5.17-2.15 10.78-1.66 16.06 1.07 11.41 3.04 12.81 13.69 13.69 1.39.12 3.76 1.62 3.79 2.53.07 2.54-.06 5.68-3.82 6.06zm1.08-19.76c-1.08-2.65-2.89-5.27-3.03-7.97-.12-2.26 1.71-4.62 2.67-6.94 1.45 2.14 2.9 4.29 4.55 6.72-1.68 3.28-2.94 5.73-4.19 8.19zm312.97 164.38c.67 3.11 2.47 4.27 5.36 3.54 2.84-.72 4.11-2.48 2.98-5.59-.66-1.84-.81-3.86-1.27-5.78-8.07-34.15-17.76-67.82-30-100.72-5.25-14.09-10.93-28.03-16.56-41.97-2.36-5.85-5.07-11.56-7.73-17.29-1.7-3.65-3.61-7.2-5.43-10.79-.52.29-1.03.58-1.55.86 1.03 1.54 2.42 2.95 3.04 4.64 4.23 11.45 8.2 23 12.42 34.45 11.96 32.42 22.12 65.38 30 99.03 3.08 13.16 5.9 26.4 8.74 39.62zm-390-27.62c-1.85 1.57-3.81 3.02-5.53 4.72-9.17 9.07-18.28 18.22-27.43 27.32-1.17 1.17-2.75 2.01-3.68 3.32-1.29 1.82-3.09 4.06-2.86 5.9.15 1.22 3.48 2.96 5.35 2.92 23.7-.46 47.41-1.19 71.1-1.95 1-.03 1.96-1.13 2.94-1.74-1.08-.68-2.13-1.91-3.23-1.96-17.56-.78-35.12-1.4-52.68-2.09-1.87-.07-3.74-.34-6.81-.64 8.83-11.91 18.37-22 24.01-34.59l-1.18-1.21zm119.35-115.02c-1.62 6.75.24 9.25 6.08 8.08 1.69-.34 3.71-2.65 4.26-4.46 3.27-10.89 6.34-21.86 9.08-32.89 1.18-4.73 1.58-9.69 1.92-14.57.08-1.15-1.42-3.4-2.34-3.48-6.93-.63-13.91-1.19-20.85-.91-1.54.06-3.81 3.36-4.18 5.44-.46 2.59.9 5.06 4.53 5.16 3.45.09 6.89.71 10.76 1.14-.74 3.2-1.32 5.96-2.03 8.68-2.4 9.27-4.99 18.5-7.23 27.81zM550.76 693.71c-3.1.05-6.18 1.2-9.27 1.85l-.12 1.99c1.99.62 3.96 1.67 5.98 1.77 6.14.33 12.31.29 18.46.39 11.63.2 23.27.52 34.9.47 1.69-.01 3.37-1.81 5.05-2.79-.86-1.45-1.46-3.16-2.62-4.3-8.42-8.27-16.88-16.51-25.51-24.55-2.04-1.9-4.82-3.01-7.26-4.49-.37.43-.75.85-1.12 1.28 6.99 9.27 13.98 18.54 21.32 28.28-13.26.01-26.53-.11-39.81.1zM442.02 549.43c5.12-.04 5.4-3.12 5.34-6.97-.11-7.32-.03-14.65-.03-21.98 0-7.49.12-14.99-.09-22.47-.05-1.68-1.24-4.7-1.97-4.73-2.16-.07-4.49.8-6.49 1.81-1.95 1-3.75 2.47-5.3 4.04-1.24 1.27-2.77 3.02-2.74 4.53.03 1.71 1.65 3.39 2.6 5.07 1.04 1.83 2.95 3.63 3.01 5.48.31 9.48.26 18.98.1 28.46-.06 4.09.6 6.8 5.57 6.76zm888.45 101.82c1.04 4.13 1.6 8.39 2.84 12.44.48 1.59 2.26 2.78 3.45 4.15.73-.41 1.45-.82 2.18-1.23-1.9-8.32-3.69-16.66-5.84-24.91-.24-.93-2.51-1.33-3.84-1.98-.41 1.54-1.33 3.16-1.1 4.6.39 2.38 1.71 4.58 2.31 6.93zm-9.18-38.41c-.76 3.43.11 7.46 1.19 10.95.56 1.79 3.08 2.97 4.72 4.43.62-.51 1.23-1.02 1.85-1.52-1.02-4.28-1.85-8.61-3.13-12.81-.82-2.72-4.13-3.3-4.63-1.05zm-655.62-10.83c-2.97 8.18-6.1 16.31-9.17 24.45-2.55 6.77-5.11 13.53-7.81 20.65 3.03.98 4.86 1.74 6.77 2.17 6.94 1.56 13.63-2.18 16.33-8.85 2.81-6.93 5.76-13.81 8.98-21.51 15.68 15.34 34.52 23.33 54.05 28.68 19.61 5.37 39.98 7.5 60.53 4.84 20.34-2.63 37.76-11.9 54.21-24.86 2.04 5.3 3.55 9.11 4.98 12.95 2.71 7.29 7.55 10.18 16.03 8.19 6.33-1.48 7.15-3.26 4.73-9.53-3.09-8.01-6.73-15.81-9.5-23.92-1.1-3.23-1.85-7.7-.47-10.48 6.63-13.41 7.12-27.71 5.67-41.84-.94-9.12-4.18-18.28-7.88-26.78-6.59-15.14-19.97-23.74-34.26-30.12-8.21-3.67-11.75-9.6-14.38-17.12-.44-1.25-.77-2.53-1.26-3.75-5.59-13.91-11.14-27.84-16.84-41.71-1.62-3.94-.06-5.62 3.63-6 4.61-.47 9.26-1.09 13.88-1.02 10.36.15 20.1 3.63 26.91 11.07 11.92 13.02 11.98 30.67.99 44.34-1.16 1.44-2.61 4.43-2.01 5.19 2.77 3.51 5.77 7.24 9.54 9.43 3.59 2.09 6.37-1.45 8.48-4.22 9.01-11.79 13.39-24.7 10.67-39.82-3.47-19.28-13.95-32.57-32.41-38.94-14.06-4.86-28.6-5.39-43.18-2.17-3.35.74-5.49.2-6.93-3.48-5.32-13.54-10.88-26.99-16.64-40.35-.99-2.29-3.03-4.87-5.2-5.72-3.54-1.39-5.29 1.78-6.46 4.64-5.79 14.03-11.58 28.07-17.2 42.17-1.46 3.66-3.14 5.29-7.43 3.95-4.69-1.46-9.65-2.72-14.52-2.82-16.49-.35-32.99-.19-49.49-.16-6.51.01-12.01 2.9-16.28 7.44-12.47 13.25-8.61 36.03 8.75 42.29 3.78 1.36 5.15 3.74 5.14 7.94-.17 39.83-.09 79.66-.13 119.49-.04 1.76-.22 3.64-.82 5.29zm18.38-47.91v-40.69c3.99 0 6.81-.04 9.62.01 5.21.09 7.05 2.33 5.21 7.27-3.21 8.62-6.84 17.08-10.32 25.59-1.1 2.7-2.26 5.37-4.51 7.82zm63.26 79.42c-20.86-5.3-39.81-14.08-54.89-30.11-3.04-3.24-3.4-5.95-1.79-9.72 2.72-6.36 5.2-12.83 7.74-19.26 2.09-5.29 6.61-7.43 12.3-6.95 5.85.49 11.79-.19 17.67.1 2.04.1 4.86.98 5.88 2.49 13.73 20.34 27.22 40.84 40.71 61.34.84 1.28 1.18 2.88 1.95 4.82-10.56 1.04-20.15-.32-29.57-2.71zm-34.93-94.58l1.56-.15c1.76 2.61 3.52 5.22 5.29 7.83-.25.46-.5.93-.75 1.39-2.18-.81-5.17-1.03-6.31-2.6-1.01-1.37.06-4.25.21-6.47zm137.55 13.28c3.05 8.78 5.11 17.77 1.8 28.2-5.68-13.96-11.08-27.15-16.41-40.37-1.07-2.66-1.88-5.42-3.2-9.26 9.51 5.28 14.73 12.58 17.81 21.43zm-33.16 15.21c7.15-.12 9.21 1.5 11.82 8.03 3.66 9.17 7.13 18.44 11.33 27.36 2.3 4.88-1.02 7.54-3.28 9.87-9.91 10.22-21.4 18.11-35.71 20.97-.95.19-2.46-.45-3.13-1.21-5.53-6.36-11.29-12.58-16.22-19.39-3.11-4.31-4.78-9.64-7.34-14.38-1.88-3.46-4.16-6.7-6.27-10.04-4.11-6.52-8.21-13.03-12.43-19.74 3.19-1.37 7.36 1.2 8.75-3.34.03-.1 1.55-.07 1.79.28 2.59 3.85 6.52 2.53 9.94 2.49 13.59-.18 27.16-.66 40.75-.9zm-39.52-113.16c4.31 3.31 14.4 27.55 13.72 32.97-12.24-2.88-22.11-20.28-13.72-32.97zm-16.4-32.47c.76-.68 2.16-1.22 3.12-1.03 3.39.66 7.04 9.96 4.85 12.76-2.7 3.44-5.91 6.49-8.92 9.74-5.32-6.62-4.82-16.29.95-21.47zm-16.49 39.49c4.87 10.21-.01 22.59-11.29 28.47 3.77-9.49 7.53-18.98 11.29-28.47zm-3.85 44.62c10.17-1.94 14.32-10.4 20.54-17.84 10.37 13.33 24.83 19.25 38.99 25.77 2.59 1.19 5.01 4.01 6.24 6.67 2.91 6.28 5.11 12.89 7.49 19.41 2.12 5.8-.89 9.54-7.01 9.42-18.62-.36-37.25-.8-55.87-.64-6.8.06-11.58-1.43-14.93-7.84-3.51-6.71-8.05-12.87-12.11-19.29-3.12-4.94-1.4-8.6 4.18-10.41 4.29-1.38 8.15-4.42 12.48-5.25zm-54.09-69.34c11.8-.03 23.62.03 35.41.61 3.03.15 5.95 2.29 9.43 3.72-4.82 12.08-9.33 23.39-13.83 34.71-2.02 5.07-4.05 10.14-5.99 15.24-1.21 3.19-2.82 5.1-6.83 4.84-6.45-.42-12.95-.11-20.07-.11-.41-3.42-1.11-6.62-1.14-9.84-.12-14.66-.03-29.33-.09-43.99-.03-2.51.08-5.17 3.11-5.18zm-20.54 16.14c-2.27-.15-5.09.68-5.78-3.42-.81-4.77 2.19-7.48 5.78-10.35v13.77z"/>
  <path d="M590.29 611.54c-12.22-23.33-19.14-48.3-20.8-74.45-1.82-28.54 2.32-56.37 12.77-83.23 9.6-24.7 23-46.89 41.78-65.57 12.36-12.28 24.38-24.94 40.48-32.92 20.05-9.94 39.86-20.31 62.41-23.35 13.08-1.76 26.18-3.85 39.33-4.34 9.3-.35 18.72 1.51 28.04 2.77 22.22 3.01 43 10.79 62.78 20.9 22.29 11.39 41.77 26.57 57.93 45.95 13.64 16.37 24.64 34.27 32.48 54.02 4.56 11.5 8.26 23.34 12.45 35.31-4.4-49.64-47.73-132.31-134.18-159.6-84.56-26.7-184.93 2.95-236.79 92.01-41.08 70.54-29.9 158.33 8.16 209.97.33-1.79.54-3.73-.19-5.23-2.02-4.18-4.5-8.13-6.65-12.24zm165.08 111.72c14.88.76 29.7-.07 44.54-2.63 25.28-4.37 48.69-13.2 70.31-26.77 18.62-11.68 35.02-26.05 48.56-43.41 10.26-13.15 19.67-26.94 25.79-42.62 4.62-11.84 9.27-23.7 13.25-35.76 1.76-5.35 1.91-11.23 2.79-16.86-.53-.09-1.06-.17-1.6-.26-1.46 7.53-2.7 15.04-6.09 22.09-6.57 13.68-11.75 28.1-19.02 41.37-10.75 19.61-25.71 36.07-43.03 50.2-15.95 13.02-33.41 23.71-52.51 31.54-19.86 8.15-40.62 13.11-61.95 14.16-14.64.72-29.48-.34-44.08-1.92-16.33-1.77-32.12-6.29-47.31-12.85-32.97-14.26-59.92-35.84-80.74-65.12-.77-1.08-2.5-1.48-3.78-2.2.16 1.62-.26 3.68.58 4.78 4.59 6.05 9.52 11.82 14.26 17.76 11.47 14.36 25.62 25.8 40.93 35.56 10.98 7 22.83 12.81 34.75 18.14 20.4 9.12 42.1 13.66 64.35 14.8zM322.89 841.37c.55-5.7 1.97-11.67-1.78-16.88-5.35-7.43-12.4-12.9-21.59-13.77-8.29-.79-16.83-.79-25.08.27-10.71 1.38-14.69 5.38-14.88 13.33-.28 11.61-.07 23.23-.07 34.84-.32 0-.63 0-.95.01 0 2.33.02 4.66 0 6.99-.11 9.38 2.57 8.96 10.1 7.97 7.8-1.03 15.46-3.1 23.19-4.71 15.83-3.29 29.24-9.32 31.06-28.05zm-119.77 319.52c-.97 5.19 10.04 34.11 14.96 35.51-4.51-12.01-9.01-24.02-13.51-36.03-.49.17-.97.34-1.45.52zm-3.68-16.26c-.87 1.1-1.82 1.75-1.84 2.44-.06 2.1-.13 4.35.53 6.28.41 1.2 2.17 1.93 3.32 2.87.45-1.51 1.28-3.03 1.25-4.53-.04-1.58-.82-3.17-1.44-4.68-.31-.75-1-1.33-1.82-2.38zm1051.63 198.23c3.67-1.75 7.35-3.5 11.02-5.26l-.66-1.41c-3.63 1.75-7.27 3.5-10.9 5.25.19.48.36.95.54 1.42z"/>
</svg>
